<?xml version="1.0" encoding="utf-8"?>
<!-- Generator: Fusion 360, Shaper Origin Export Add-In, Version 1.4.1  -->
<svg enable-background="new 0 0 6.6 12.1" height="12.1cm" shaper:fusionaddin="version:1.4.1" version="1.1" viewBox="0 0 6.6 12.1" width="6.6cm" x="0cm" xml:space="preserve" xmlns="http://www.w3.org/2000/svg" xmlns:shaper="http://www.shapertools.com/namespaces/shaper" xmlns:xlink="http://www.w3.org/1999/xlink" y="0cm"><path d="M0,0 L6.6,0 6.6,-12.1 0,-12.1 0,0z" fill="none" shaper:cutDepth="0" shaper:pathType="guide" stroke="rgb(100,100,100)" stroke-width="2" transform="matrix(1,0,0,-1,-0,0)" vector-effect="non-scaling-stroke" /><path d="M3.15,-3.3 a0.15,0.15 0 1,1 0.3,0 a0.15,0.15 0 1,1 -0.3,0z" fill="none" shaper:cutDepth="0" shaper:pathType="guide" stroke="rgb(100,100,100)" stroke-width="2" transform="matrix(1,0,0,-1,-0,0)" vector-effect="non-scaling-stroke" /><path d="M1.4,-1.55 a0.15,0.15 0 1,1 0.3,0 a0.15,0.15 0 1,1 -0.3,0z" fill="none" shaper:cutDepth="0" shaper:pathType="guide" stroke="rgb(100,100,100)" stroke-width="2" transform="matrix(1,0,0,-1,-0,0)" vector-effect="non-scaling-stroke" /><path d="M4.9,-1.55 a0.15,0.15 0 1,1 0.3,0 a0.15,0.15 0 1,1 -0.3,0z" fill="none" shaper:cutDepth="0" shaper:pathType="guide" stroke="rgb(100,100,100)" stroke-width="2" transform="matrix(1,0,0,-1,-0,0)" vector-effect="non-scaling-stroke" /><path d="M2.7,-10 a0.6,0.6 0 1,1 1.2,0 a0.6,0.6 0 1,1 -1.2,0z" fill="none" shaper:cutDepth="0" shaper:pathType="guide" stroke="rgb(100,100,100)" stroke-width="2" transform="matrix(1,0,0,-1,-0,0)" vector-effect="non-scaling-stroke" /><path d="M0,-9.4 L6.6,-9.4" fill="none" shaper:cutDepth="0" shaper:pathType="guide" stroke="rgb(100,100,100)" stroke-width="2" transform="matrix(1,0,0,-1,-0,0)" vector-effect="non-scaling-stroke" /><path d="M3.3,-9.4 L3.3,-10.6" fill="none" shaper:cutDepth="0" shaper:pathType="guide" stroke="rgb(100,100,100)" stroke-width="2" transform="matrix(1,0,0,-1,-0,0)" vector-effect="non-scaling-stroke" /><path d="M2.7,-10 L3.9,-10" fill="none" shaper:cutDepth="0" shaper:pathType="guide" stroke="rgb(100,100,100)" stroke-width="2" transform="matrix(1,0,0,-1,-0,0)" vector-effect="non-scaling-stroke" /><path d="M3.45,-3.3 L3.3,-3.3 3.15,-3.3" fill="none" shaper:cutDepth="0" shaper:pathType="guide" stroke="rgb(100,100,100)" stroke-width="2" transform="matrix(1,0,0,-1,-0,0)" vector-effect="non-scaling-stroke" /><path d="M3.3,-3.45 L3.3,-3.3 3.3,-3.15" fill="none" shaper:cutDepth="0" shaper:pathType="guide" stroke="rgb(100,100,100)" stroke-width="2" transform="matrix(1,0,0,-1,-0,0)" vector-effect="non-scaling-stroke" /><path d="M5.05,-1.4 L5.05,-1.55 4.9,-1.55" fill="none" shaper:cutDepth="0" shaper:pathType="guide" stroke="rgb(100,100,100)" stroke-width="2" transform="matrix(1,0,0,-1,-0,0)" vector-effect="non-scaling-stroke" /><path d="M5.05,-1.7 L5.05,-1.55 5.2,-1.55" fill="none" shaper:cutDepth="0" shaper:pathType="guide" stroke="rgb(100,100,100)" stroke-width="2" transform="matrix(1,0,0,-1,-0,0)" vector-effect="non-scaling-stroke" /><path d="M3.15,-1.55 a0.15,0.15 0 1,1 0.3,0 a0.15,0.15 0 1,1 -0.3,0z" fill="none" shaper:cutDepth="0" shaper:pathType="guide" stroke="rgb(100,100,100)" stroke-width="2" transform="matrix(1,0,0,-1,-0,0)" vector-effect="non-scaling-stroke" /><path d="M3.3,-1.4 L3.3,-1.55 3.45,-1.55" fill="none" shaper:cutDepth="0" shaper:pathType="guide" stroke="rgb(100,100,100)" stroke-width="2" transform="matrix(1,0,0,-1,-0,0)" vector-effect="non-scaling-stroke" /><path d="M3.3,-1.7 L3.3,-1.55 3.15,-1.55" fill="none" shaper:cutDepth="0" shaper:pathType="guide" stroke="rgb(100,100,100)" stroke-width="2" transform="matrix(1,0,0,-1,-0,0)" vector-effect="non-scaling-stroke" /><path d="M1.55,-1.7 L1.55,-1.55 1.55,-1.4" fill="none" shaper:cutDepth="0" shaper:pathType="guide" stroke="rgb(100,100,100)" stroke-width="2" transform="matrix(1,0,0,-1,-0,0)" vector-effect="non-scaling-stroke" /><path d="M1.7,-1.55 L1.55,-1.55 1.4,-1.55" fill="none" shaper:cutDepth="0" shaper:pathType="guide" stroke="rgb(100,100,100)" stroke-width="2" transform="matrix(1,0,0,-1,-0,0)" vector-effect="non-scaling-stroke" /><path d="M0,-4.3 L6.6,-4.3" fill="none" shaper:cutDepth="0" shaper:pathType="guide" stroke="rgb(100,100,100)" stroke-width="2" transform="matrix(1,0,0,-1,-0,0)" vector-effect="non-scaling-stroke" /></svg>