<?xml version="1.0" encoding="utf-8"?>
<!-- Generator: Fusion 360, Shaper Origin Export Add-In, Version 1.4.1  -->
<svg enable-background="new 0 0 6.6 12.1" height="12.1cm" shaper:fusionaddin="version:1.4.1" version="1.1" viewBox="0 0 6.6 12.1" width="6.6cm" x="0cm" xml:space="preserve" xmlns="http://www.w3.org/2000/svg" xmlns:shaper="http://www.shapertools.com/namespaces/shaper" xmlns:xlink="http://www.w3.org/1999/xlink" y="0cm"><path d="M0,0 L6.6,0 6.6,-12.1 0,-12.1 0,0z" fill="none" shaper:cutDepth="0" shaper:pathType="guide" stroke="rgb(100,100,100)" stroke-width="2" transform="matrix(1,0,0,-1,-0,0)" vector-effect="non-scaling-stroke" /><path d="M3.15,-1.6 a0.15,0.15 0 1,1 0.3,0 a0.15,0.15 0 1,1 -0.3,0z" fill="none" shaper:cutDepth="0" shaper:pathType="guide" stroke="rgb(100,100,100)" stroke-width="2" transform="matrix(1,0,0,-1,-0,0)" vector-effect="non-scaling-stroke" /><path d="M1.05,-1.6 a0.15,0.15 0 1,1 0.3,0 a0.15,0.15 0 1,1 -0.3,0z" fill="none" shaper:cutDepth="0" shaper:pathType="guide" stroke="rgb(100,100,100)" stroke-width="2" transform="matrix(1,0,0,-1,-0,0)" vector-effect="non-scaling-stroke" /><path d="M5.25,-1.6 a0.15,0.15 0 1,1 0.3,0 a0.15,0.15 0 1,1 -0.3,0z" fill="none" shaper:cutDepth="0" shaper:pathType="guide" stroke="rgb(100,100,100)" stroke-width="2" transform="matrix(1,0,0,-1,-0,0)" vector-effect="non-scaling-stroke" /><path d="M2.3,-1.6 a1,1 0 1,1 2,0 a1,1 0 1,1 -2,0z" fill="none" shaper:cutDepth="0" shaper:pathType="guide" stroke="rgb(100,100,100)" stroke-width="2" transform="matrix(1,0,0,-1,-0,0)" vector-effect="non-scaling-stroke" /><path d="M0.2,-1.6 a1,1 0 1,1 2,0 a1,1 0 1,1 -2,0z" fill="none" shaper:cutDepth="0" shaper:pathType="guide" stroke="rgb(100,100,100)" stroke-width="2" transform="matrix(1,0,0,-1,-0,0)" vector-effect="non-scaling-stroke" /><path d="M4.4,-1.6 a1,1 0 1,1 2,0 a1,1 0 1,1 -2,0z" fill="none" shaper:cutDepth="0" shaper:pathType="guide" stroke="rgb(100,100,100)" stroke-width="2" transform="matrix(1,0,0,-1,-0,0)" vector-effect="non-scaling-stroke" /><path d="M2.7,-8.1 a0.6,0.6 0 1,1 1.2,0 a0.6,0.6 0 1,1 -1.2,0z" fill="none" shaper:cutDepth="0" shaper:pathType="guide" stroke="rgb(100,100,100)" stroke-width="2" transform="matrix(1,0,0,-1,-0,0)" vector-effect="non-scaling-stroke" /><path d="M3.9,-8.1 L3.3,-8.1 2.7,-8.1 3.9,-8.1z" fill="none" shaper:cutDepth="0" shaper:pathType="guide" stroke="rgb(100,100,100)" stroke-width="2" transform="matrix(1,0,0,-1,-0,0)" vector-effect="non-scaling-stroke" /><path d="M3.45,-1.6 L3.3,-1.6 3.15,-1.6" fill="none" shaper:cutDepth="0" shaper:pathType="guide" stroke="rgb(100,100,100)" stroke-width="2" transform="matrix(1,0,0,-1,-0,0)" vector-effect="non-scaling-stroke" /><path d="M3.3,-1.75 L3.3,-1.6 3.3,-1.45" fill="none" shaper:cutDepth="0" shaper:pathType="guide" stroke="rgb(100,100,100)" stroke-width="2" transform="matrix(1,0,0,-1,-0,0)" vector-effect="non-scaling-stroke" /><path d="M5.4,-1.45 L5.4,-1.6 5.25,-1.6" fill="none" shaper:cutDepth="0" shaper:pathType="guide" stroke="rgb(100,100,100)" stroke-width="2" transform="matrix(1,0,0,-1,-0,0)" vector-effect="non-scaling-stroke" /><path d="M5.4,-1.75 L5.4,-1.6 5.55,-1.6" fill="none" shaper:cutDepth="0" shaper:pathType="guide" stroke="rgb(100,100,100)" stroke-width="2" transform="matrix(1,0,0,-1,-0,0)" vector-effect="non-scaling-stroke" /><path d="M1.2,-1.75 L1.2,-1.6 1.2,-1.45" fill="none" shaper:cutDepth="0" shaper:pathType="guide" stroke="rgb(100,100,100)" stroke-width="2" transform="matrix(1,0,0,-1,-0,0)" vector-effect="non-scaling-stroke" /><path d="M1.05,-1.6 L1.2,-1.6 1.35,-1.6" fill="none" shaper:cutDepth="0" shaper:pathType="guide" stroke="rgb(100,100,100)" stroke-width="2" transform="matrix(1,0,0,-1,-0,0)" vector-effect="non-scaling-stroke" /><path d="M0,-2.6 L6.6,-2.6" fill="none" shaper:cutDepth="0" shaper:pathType="guide" stroke="rgb(100,100,100)" stroke-width="2" transform="matrix(1,0,0,-1,-0,0)" vector-effect="non-scaling-stroke" /><path d="M3.3,-7.5 L3.3,-8.1 3.3,-8.7" fill="none" shaper:cutDepth="0" shaper:pathType="guide" stroke="rgb(100,100,100)" stroke-width="2" transform="matrix(1,0,0,-1,-0,0)" vector-effect="non-scaling-stroke" /><path d="M3.05,-11.1 a0.25,0.25 0 1,1 0.5,0 a0.25,0.25 0 1,1 -0.5,0z" fill="none" shaper:cutDepth="0" shaper:pathType="guide" stroke="rgb(100,100,100)" stroke-width="2" transform="matrix(1,0,0,-1,-0,0)" vector-effect="non-scaling-stroke" /><path d="M3.3,-11.3500002 L3.3,-11.1 3.55,-11.1" fill="none" shaper:cutDepth="0" shaper:pathType="guide" stroke="rgb(100,100,100)" stroke-width="2" transform="matrix(1,0,0,-1,-0,0)" vector-effect="non-scaling-stroke" /><path d="M3.3,-10.8500002 L3.3,-11.1 3.05,-11.1" fill="none" shaper:cutDepth="0" shaper:pathType="guide" stroke="rgb(100,100,100)" stroke-width="2" transform="matrix(1,0,0,-1,-0,0)" vector-effect="non-scaling-stroke" /></svg>