<?xml version="1.0" encoding="UTF-8" standalone="no"?>
<!-- Created with Inkscape (http://www.inkscape.org/) -->

<svg
   xmlns:shaper="http://www.shapertools.com/namespaces/shaper"
   xmlns:dc="http://purl.org/dc/elements/1.1/"
   xmlns:cc="http://creativecommons.org/ns#"
   xmlns:rdf="http://www.w3.org/1999/02/22-rdf-syntax-ns#"
   xmlns:svg="http://www.w3.org/2000/svg"
   xmlns="http://www.w3.org/2000/svg"
   xmlns:sodipodi="http://sodipodi.sourceforge.net/DTD/sodipodi-0.dtd"
   xmlns:inkscape="http://www.inkscape.org/namespaces/inkscape"
   version="1.1"
   width="1220mm"
   height="610mm"
   id="svg2"
   inkscape:version="0.92.4 (5da689c313, 2019-01-14)"
   sodipodi:docname="Result.svg"
   viewBox="0 0 1220 610">
  <sodipodi:namedview
     pagecolor="#ffffff"
     bordercolor="#666666"
     borderopacity="1"
     objecttolerance="10"
     gridtolerance="10"
     guidetolerance="10"
     inkscape:pageopacity="0"
     inkscape:pageshadow="2"
     inkscape:window-width="1920"
     inkscape:window-height="1017"
     id="namedview91444"
     showgrid="false"
     inkscape:zoom="1.414125"
     inkscape:cx="1566.6338"
     inkscape:cy="1186.055"
     inkscape:window-x="-8"
     inkscape:window-y="-8"
     inkscape:window-maximized="1"
     inkscape:current-layer="layer3"
     units="mm"
     inkscape:document-units="mm" />
  <defs
     id="defs4">
    <symbol
       id="*PAPER_SPACE" />
    <symbol
       id="*MODEL_SPACE" />
    <pattern
       height="8"
       width="8"
       patternUnits="userSpaceOnUse"
       y="0"
       x="0"
       id="Hatch">
      <path
         linecap="square"
         stroke="#000000"
         stroke-width="0.25"
         d="M8 4 l-4,4"
         id="path617966" />
      <path
         linecap="square"
         stroke="#000000"
         stroke-width="0.25"
         d="M6 2 l-4,4"
         id="path617968" />
      <path
         linecap="square"
         stroke="#000000"
         stroke-width="0.25"
         d="M4 0 l-4,4"
         id="path617970" />
    </pattern>
    <marker
       refX="0"
       refY="0"
       orient="auto"
       id="DistanceX"
       style="overflow:visible">
      <path
         d="M 3,-3 -3,3 M 0,-5 V 5"
         id="path617963"
         style="stroke:#000000;stroke-width:0.5"
         inkscape:connector-curvature="0" />
    </marker>
    <symbol
       id="$PAPER_SPACE" />
    <symbol
       id="$MODEL_SPACE" />
    <pattern
       id="Hatch-0"
       x="0"
       y="0"
       patternUnits="userSpaceOnUse"
       width="8"
       height="8">
      <path
         id="path73478"
         d="M8 4 l-4,4"
         stroke-width="0.25"
         stroke="#000000"
         linecap="square" />
      <path
         id="path73480"
         d="M6 2 l-4,4"
         stroke-width="0.25"
         stroke="#000000"
         linecap="square" />
      <path
         id="path73482"
         d="M4 0 l-4,4"
         stroke-width="0.25"
         stroke="#000000"
         linecap="square" />
    </pattern>
    <marker
       refX="0"
       refY="0"
       orient="auto"
       id="DistanceX-5"
       style="overflow:visible">
      <path
         d="M 3,-3 -3,3 M 0,-5 V 5"
         id="path73475"
         style="stroke:#000000;stroke-width:0.5"
         inkscape:connector-curvature="0" />
    </marker>
    <symbol
       id="$PAPER_SPACE-1" />
    <symbol
       id="$MODEL_SPACE-0" />
    <pattern
       height="8"
       width="8"
       patternUnits="userSpaceOnUse"
       y="0"
       x="0"
       id="Hatch-1">
      <path
         linecap="square"
         stroke="#000000"
         stroke-width="0.25"
         d="M8 4 l-4,4"
         id="path44235" />
      <path
         linecap="square"
         stroke="#000000"
         stroke-width="0.25"
         d="M6 2 l-4,4"
         id="path44237" />
      <path
         linecap="square"
         stroke="#000000"
         stroke-width="0.25"
         d="M4 0 l-4,4"
         id="path44239" />
    </pattern>
    <marker
       refX="0"
       refY="0"
       orient="auto"
       id="DistanceX-1"
       style="overflow:visible">
      <path
         d="M 3,-3 -3,3 M 0,-5 V 5"
         id="path44232"
         style="stroke:#000000;stroke-width:0.5"
         inkscape:connector-curvature="0" />
    </marker>
    <symbol
       id="$PAPER_SPACE-5" />
    <symbol
       id="$MODEL_SPACE-4" />
    <pattern
       id="Hatch-04"
       x="0"
       y="0"
       patternUnits="userSpaceOnUse"
       width="8"
       height="8">
      <path
         id="path101669"
         d="M8 4 l-4,4"
         stroke-width="0.25"
         stroke="#000000"
         linecap="square" />
      <path
         id="path101671"
         d="M6 2 l-4,4"
         stroke-width="0.25"
         stroke="#000000"
         linecap="square" />
      <path
         id="path101673"
         d="M4 0 l-4,4"
         stroke-width="0.25"
         stroke="#000000"
         linecap="square" />
    </pattern>
    <marker
       orient="auto"
       id="DistanceX-2"
       style="overflow:visible"
       refX="0"
       refY="0">
      <path
         id="path101666"
         d="M 3,-3 -3,3 M 0,-5 V 5"
         style="stroke:#000000;stroke-width:0.5"
         inkscape:connector-curvature="0" />
    </marker>
    <symbol
       id="*PAPER_SPACE-9" />
    <symbol
       id="*MODEL_SPACE-2" />
    <pattern
       id="Hatch-9"
       x="0"
       y="0"
       patternUnits="userSpaceOnUse"
       width="8"
       height="8">
      <path
         id="path145873"
         d="M8 4 l-4,4"
         stroke-width="0.25"
         stroke="#000000"
         linecap="square" />
      <path
         id="path145875"
         d="M6 2 l-4,4"
         stroke-width="0.25"
         stroke="#000000"
         linecap="square" />
      <path
         id="path145877"
         d="M4 0 l-4,4"
         stroke-width="0.25"
         stroke="#000000"
         linecap="square" />
    </pattern>
    <marker
       orient="auto"
       id="DistanceX-24"
       style="overflow:visible"
       refX="0"
       refY="0">
      <path
         id="path145870"
         d="M 3,-3 -3,3 M 0,-5 V 5"
         style="stroke:#000000;stroke-width:0.5"
         inkscape:connector-curvature="0" />
    </marker>
    <symbol
       id="$PAPER_SPACE-4" />
    <symbol
       id="$MODEL_SPACE-1" />
    <pattern
       id="Hatch-8"
       x="0"
       y="0"
       patternUnits="userSpaceOnUse"
       width="8"
       height="8">
      <path
         id="path1947"
         d="M8 4 l-4,4"
         stroke-width="0.25"
         stroke="#000000"
         linecap="square" />
      <path
         id="path1949"
         d="M6 2 l-4,4"
         stroke-width="0.25"
         stroke="#000000"
         linecap="square" />
      <path
         id="path1951"
         d="M4 0 l-4,4"
         stroke-width="0.25"
         stroke="#000000"
         linecap="square" />
    </pattern>
    <marker
       orient="auto"
       id="DistanceX-55"
       style="overflow:visible"
       refX="0"
       refY="0">
      <path
         id="path1944"
         d="M 3,-3 -3,3 M 0,-5 V 5"
         style="stroke:#000000;stroke-width:0.5"
         inkscape:connector-curvature="0" />
    </marker>
    <symbol
       id="*PAPER_SPACE-7" />
    <symbol
       id="*MODEL_SPACE-0" />
    <pattern
       id="Hatch-82"
       x="0"
       y="0"
       patternUnits="userSpaceOnUse"
       width="8"
       height="8">
      <path
         id="path1175"
         d="M8 4 l-4,4"
         stroke-width="0.25"
         stroke="#000000"
         linecap="square" />
      <path
         id="path1177"
         d="M6 2 l-4,4"
         stroke-width="0.25"
         stroke="#000000"
         linecap="square" />
      <path
         id="path1179"
         d="M4 0 l-4,4"
         stroke-width="0.25"
         stroke="#000000"
         linecap="square" />
    </pattern>
    <marker
       orient="auto"
       id="DistanceX-29"
       style="overflow:visible"
       refX="0"
       refY="0">
      <path
         id="path1172"
         d="M 3,-3 -3,3 M 0,-5 V 5"
         style="stroke:#000000;stroke-width:0.5"
         inkscape:connector-curvature="0" />
    </marker>
    <symbol
       id="*PAPER_SPACE-76" />
    <symbol
       id="*MODEL_SPACE-5" />
    <pattern
       id="Hatch-3"
       x="0"
       y="0"
       patternUnits="userSpaceOnUse"
       width="8"
       height="8">
      <path
         id="path1809-9"
         d="M8 4 l-4,4"
         stroke-width="0.25"
         stroke="#000000"
         linecap="square" />
      <path
         id="path1811-8"
         d="M6 2 l-4,4"
         stroke-width="0.25"
         stroke="#000000"
         linecap="square" />
      <path
         id="path1813-6"
         d="M4 0 l-4,4"
         stroke-width="0.25"
         stroke="#000000"
         linecap="square" />
    </pattern>
    <marker
       orient="auto"
       id="DistanceX-0"
       style="overflow:visible"
       refX="0"
       refY="0">
      <path
         id="path1806"
         d="M 3,-3 -3,3 M 0,-5 V 5"
         style="stroke:#000000;stroke-width:0.5"
         inkscape:connector-curvature="0" />
    </marker>
    <symbol
       id="*PAPER_SPACE-6" />
    <symbol
       id="*MODEL_SPACE-7" />
    <pattern
       id="Hatch-5"
       x="0"
       y="0"
       patternUnits="userSpaceOnUse"
       width="8"
       height="8">
      <path
         id="path1851"
         d="M8 4 l-4,4"
         stroke-width="0.25"
         stroke="#000000"
         linecap="square" />
      <path
         id="path1853"
         d="M6 2 l-4,4"
         stroke-width="0.25"
         stroke="#000000"
         linecap="square" />
      <path
         id="path1855"
         d="M4 0 l-4,4"
         stroke-width="0.25"
         stroke="#000000"
         linecap="square" />
    </pattern>
    <marker
       orient="auto"
       id="DistanceX-6"
       style="overflow:visible"
       refX="0"
       refY="0">
      <path
         id="path1848"
         d="M 3,-3 -3,3 M 0,-5 V 5"
         style="stroke:#000000;stroke-width:0.5"
         inkscape:connector-curvature="0" />
    </marker>
    <symbol
       id="*PAPER_SPACE-0" />
    <symbol
       id="*MODEL_SPACE-27" />
    <pattern
       id="Hatch-6"
       x="0"
       y="0"
       patternUnits="userSpaceOnUse"
       width="8"
       height="8">
      <path
         id="path1858"
         d="M8 4 l-4,4"
         stroke-width="0.25"
         stroke="#000000"
         linecap="square" />
      <path
         id="path1860"
         d="M6 2 l-4,4"
         stroke-width="0.25"
         stroke="#000000"
         linecap="square" />
      <path
         id="path1862"
         d="M4 0 l-4,4"
         stroke-width="0.25"
         stroke="#000000"
         linecap="square" />
    </pattern>
    <marker
       orient="auto"
       id="DistanceX-65"
       style="overflow:visible"
       refX="0"
       refY="0">
      <path
         id="path1855-7"
         d="M 3,-3 -3,3 M 0,-5 V 5"
         style="stroke:#000000;stroke-width:0.5"
         inkscape:connector-curvature="0" />
    </marker>
    <style
       id="style1077">.cls-1{fill:none;}.cls-1,.cls-2{stroke:#000;stroke-miterlimit:10;stroke-width:0.75px;}.cls-2{fill:#999;}</style>
    <style
       id="style1077-4">.cls-1{fill:none;}.cls-1,.cls-2{stroke:#000;stroke-miterlimit:10;stroke-width:0.75px;}.cls-2{fill:#999;}</style>
  </defs>
  <metadata
     id="metadata7">
    <rdf:RDF>
      <cc:Work
         rdf:about="">
        <dc:format>image/svg+xml</dc:format>
        <dc:type
           rdf:resource="http://purl.org/dc/dcmitype/StillImage" />
        <dc:title />
      </cc:Work>
    </rdf:RDF>
  </metadata>
  <g
     inkscape:label="0"
     id="g145881"
     transform="translate(3.0705811,156.18135)" />
  <g
     inkscape:label="0"
     id="g101677"
     transform="translate(1.2170305,155.38115)" />
  <g
     transform="translate(-1.147247,152.76995)"
     id="g73486"
     style="stroke:#ff0000;stroke-opacity:1" />
  <g
     transform="translate(2.7720772,156.87255)"
     id="g44243" />
  <g
     inkscape:groupmode="layer"
     id="layer6"
     inkscape:label="Temp"
     style="display:inline">
    <path
       id="path2048"
       shaper:pathType="guide"
       shaper:cutDepth="0"
       d="M 0,-2.6 H 6.6"
       inkscape:connector-curvature="0"
       style="display:inline;vector-effect:non-scaling-stroke;fill:none;stroke:#ff0000;stroke-width:2;stroke-opacity:1"
       transform="matrix(10,0,0,-10,404.87169,231.43193)" />
    <path
       id="path2042"
       transform="matrix(10,0,0,-10,404.87169,231.43193)"
       shaper:pathType="guide"
       shaper:cutDepth="0"
       d="M 5.4,-1.75 V -1.6 H 5.55"
       inkscape:connector-curvature="0"
       style="display:inline;vector-effect:non-scaling-stroke;fill:none;stroke:#646464;stroke-width:2" />
    <path
       id="path2040"
       transform="matrix(10,0,0,-10,404.87169,231.43193)"
       shaper:pathType="guide"
       shaper:cutDepth="0"
       d="M 5.4,-1.45 V -1.6 H 5.25"
       inkscape:connector-curvature="0"
       style="display:inline;vector-effect:non-scaling-stroke;fill:none;stroke:#646464;stroke-width:2" />
    <path
       id="path2038"
       transform="matrix(10,0,0,-10,404.87169,231.43193)"
       shaper:pathType="guide"
       shaper:cutDepth="0"
       d="m 3.3,-1.75 v 0.15 0.15"
       inkscape:connector-curvature="0"
       style="display:inline;vector-effect:non-scaling-stroke;fill:none;stroke:#646464;stroke-width:2" />
    <path
       id="path2036"
       transform="matrix(10,0,0,-10,404.87169,231.43193)"
       shaper:pathType="guide"
       shaper:cutDepth="0"
       d="M 3.45,-1.6 H 3.3 3.15"
       inkscape:connector-curvature="0"
       style="display:inline;vector-effect:non-scaling-stroke;fill:none;stroke:#646464;stroke-width:2" />
    <path
       id="path2046"
       shaper:pathType="guide"
       shaper:cutDepth="0"
       d="M 1.05,-1.6 H 1.2 1.35"
       inkscape:connector-curvature="0"
       style="display:inline;vector-effect:non-scaling-stroke;fill:none;stroke:#646464;stroke-width:2"
       transform="matrix(10,0,0,-10,404.87169,231.43193)" />
    <path
       id="path2044"
       transform="matrix(10,0,0,-10,404.87169,231.43193)"
       shaper:pathType="guide"
       shaper:cutDepth="0"
       d="m 1.2,-1.75 v 0.15 0.15"
       inkscape:connector-curvature="0"
       style="display:inline;vector-effect:non-scaling-stroke;fill:none;stroke:#646464;stroke-width:2" />
  </g>
  <g
     inkscape:groupmode="layer"
     id="layer1"
     inkscape:label="Layout"
     style="display:inline"
     sodipodi:insensitive="true">
    <g
       id="g2086"
       transform="matrix(10,0,0,10,404.87169,231.43193)">
      <path
         id="path2018"
         transform="scale(1,-1)"
         shaper:pathType="guide"
         shaper:cutDepth="0"
         d="M 0,0 H 6.6 V -12.1 H 0 Z"
         inkscape:connector-curvature="0"
         style="vector-effect:non-scaling-stroke;fill:none;stroke:#ff0000;stroke-width:2;stroke-opacity:1" />
      <path
         id="path2020"
         transform="scale(1,-1)"
         shaper:pathType="guide"
         shaper:cutDepth="0"
         d="m 3.15,-1.6 a 0.15,0.15 0 1 1 0.3,0 0.15,0.15 0 1 1 -0.3,0 z"
         inkscape:connector-curvature="0"
         style="vector-effect:non-scaling-stroke;fill:none;stroke:#646464;stroke-width:2" />
      <path
         id="path2022"
         transform="scale(1,-1)"
         shaper:pathType="guide"
         shaper:cutDepth="0"
         d="m 1.05,-1.6 a 0.15,0.15 0 1 1 0.3,0 0.15,0.15 0 1 1 -0.3,0 z"
         inkscape:connector-curvature="0"
         style="vector-effect:non-scaling-stroke;fill:none;stroke:#646464;stroke-width:2" />
      <path
         id="path2024"
         transform="scale(1,-1)"
         shaper:pathType="guide"
         shaper:cutDepth="0"
         d="m 5.25,-1.6 a 0.15,0.15 0 1 1 0.3,0 0.15,0.15 0 1 1 -0.3,0 z"
         inkscape:connector-curvature="0"
         style="vector-effect:non-scaling-stroke;fill:none;stroke:#646464;stroke-width:2" />
      <path
         id="path2026"
         transform="scale(1,-1)"
         shaper:pathType="guide"
         shaper:cutDepth="0"
         d="m 2.3,-1.6 a 1,1 0 1 1 2,0 1,1 0 1 1 -2,0 z"
         inkscape:connector-curvature="0"
         style="vector-effect:non-scaling-stroke;fill:none;stroke:#ff0000;stroke-width:2;stroke-opacity:1" />
      <path
         id="path2028"
         transform="scale(1,-1)"
         shaper:pathType="guide"
         shaper:cutDepth="0"
         d="m 0.2,-1.6 a 1,1 0 1 1 2,0 1,1 0 1 1 -2,0 z"
         inkscape:connector-curvature="0"
         style="vector-effect:non-scaling-stroke;fill:none;stroke:#ff0000;stroke-width:2;stroke-opacity:1" />
      <path
         id="path2030"
         transform="scale(1,-1)"
         shaper:pathType="guide"
         shaper:cutDepth="0"
         d="m 4.4,-1.6 a 1,1 0 1 1 2,0 1,1 0 1 1 -2,0 z"
         inkscape:connector-curvature="0"
         style="vector-effect:non-scaling-stroke;fill:none;stroke:#ff0000;stroke-width:2;stroke-opacity:1" />
      <path
         id="path2032"
         transform="scale(1,-1)"
         shaper:pathType="guide"
         shaper:cutDepth="0"
         d="m 2.7,-8.1 a 0.6,0.6 0 1 1 1.2,0 0.6,0.6 0 1 1 -1.2,0 z"
         inkscape:connector-curvature="0"
         style="vector-effect:non-scaling-stroke;fill:none;stroke:#646464;stroke-width:2" />
      <path
         id="path2034"
         transform="scale(1,-1)"
         shaper:pathType="guide"
         shaper:cutDepth="0"
         d="M 3.9,-8.1 H 3.3 2.7 Z"
         inkscape:connector-curvature="0"
         style="vector-effect:non-scaling-stroke;fill:none;stroke:#646464;stroke-width:2" />
      <path
         id="path2050"
         transform="scale(1,-1)"
         shaper:pathType="guide"
         shaper:cutDepth="0"
         d="M 3.3,-7.5 V -8.1 -8.7"
         inkscape:connector-curvature="0"
         style="vector-effect:non-scaling-stroke;fill:none;stroke:#646464;stroke-width:2" />
      <path
         id="path2052"
         transform="scale(1,-1)"
         shaper:pathType="guide"
         shaper:cutDepth="0"
         d="m 3.05,-11.1 a 0.25,0.25 0 1 1 0.5,0 0.25,0.25 0 1 1 -0.5,0 z"
         inkscape:connector-curvature="0"
         style="vector-effect:non-scaling-stroke;fill:none;stroke:#646464;stroke-width:2" />
      <path
         id="path2054"
         transform="scale(1,-1)"
         shaper:pathType="guide"
         shaper:cutDepth="0"
         d="m 3.3,-11.35 v 0.25 h 0.25"
         inkscape:connector-curvature="0"
         style="vector-effect:non-scaling-stroke;fill:none;stroke:#646464;stroke-width:2" />
      <path
         id="path2056"
         transform="scale(1,-1)"
         shaper:pathType="guide"
         shaper:cutDepth="0"
         d="M 3.3,-10.85 V -11.1 H 3.05"
         inkscape:connector-curvature="0"
         style="vector-effect:non-scaling-stroke;fill:none;stroke:#646464;stroke-width:2" />
    </g>
  </g>
  <g
     inkscape:groupmode="layer"
     id="layer3"
     inkscape:label="Text"
     style="display:inline">
    <path
       style="display:inline;fill:none;stroke-width:0.09373148;stroke:#00ff00;stroke-opacity:1"
       d="m 408.0898,287.29801 c -0.22341,-0.22642 -0.5494,-0.48839 -0.72443,-0.58215 -0.37023,-0.19832 -0.40363,-0.35799 -0.10678,-0.51038 0.1163,-0.0597 0.45685,-0.31839 0.75677,-0.57486 0.29993,-0.25647 0.57085,-0.44092 0.60206,-0.40988 0.0312,0.031 -0.0768,0.27001 -0.23988,0.53105 -0.16314,0.26103 -0.29662,0.49285 -0.29662,0.51514 0,0.0223 1.22646,0.0405 2.72546,0.0405 2.35998,0 2.72546,0.0188 2.72546,0.14022 0,0.12142 -0.36548,0.14023 -2.72546,0.14023 -1.499,0 -2.72546,0.0214 -2.72546,0.0476 0,0.0261 0.12688,0.22176 0.28195,0.43469 0.27381,0.37598 0.35933,0.63954 0.20753,0.63954 -0.0409,0 -0.2572,-0.18525 -0.4806,-0.41168 z m 54.87232,-0.0165 c -0.23044,-0.23549 -0.53529,-0.48897 -0.67743,-0.56329 -0.31346,-0.16388 -0.33155,-0.34753 -0.047,-0.47689 0.1163,-0.0529 0.42913,-0.29099 0.69517,-0.52916 0.26604,-0.23816 0.53123,-0.43303 0.58929,-0.43303 0.11554,0 -0.20542,0.69457 -0.3668,0.79378 -0.31834,0.1957 0.11711,0.23453 2.63013,0.23453 2.66281,0 2.72546,0.004 2.72546,0.18696 0,0.18267 -0.0626,0.18697 -2.72339,0.18697 h -2.72339 l 0.27988,0.43897 c 0.15393,0.24143 0.27987,0.4728 0.27987,0.51415 0,0.18764 -0.2777,0.0395 -0.6618,-0.35299 z m 2.11831,-9.38779 c -0.0321,-0.0516 -0.18257,-0.072 -0.33448,-0.0454 -0.15605,0.0274 -0.2762,0.007 -0.2762,-0.0464 0,-0.0522 -0.0846,-0.0948 -0.18796,-0.0948 -0.11425,0 -0.18796,-0.0623 -0.18796,-0.15892 0,-0.1236 -0.0251,-0.13399 -0.11278,-0.0467 -0.16364,0.16277 -0.26315,0.1378 -0.26315,-0.066 0,-0.12779 -0.0495,-0.16534 -0.175,-0.13269 -0.26808,0.0697 -0.31711,-0.21415 -0.10754,-0.62276 0.15626,-0.30467 0.16364,-0.36668 0.0466,-0.39189 -0.12157,-0.0262 -0.12071,-0.0648 0.007,-0.3081 0.0802,-0.15298 0.12461,-0.35901 0.0986,-0.45784 -0.026,-0.0988 0.0327,-0.33561 0.13046,-0.52618 0.11643,-0.22701 0.14586,-0.37817 0.0853,-0.43838 -0.0605,-0.0602 -0.0569,-0.18484 0.0106,-0.36142 0.0861,-0.22529 0.0759,-0.28921 -0.0619,-0.3895 -0.12801,-0.0931 -0.13978,-0.14503 -0.0525,-0.23181 0.14703,-0.14626 0.1441,-0.42168 -0.005,-0.474 -0.0874,-0.0307 -0.0722,-0.11953 0.0598,-0.34753 0.16418,-0.28377 0.16565,-0.31275 0.0199,-0.39387 -0.14551,-0.081 -0.14383,-0.10981 0.0225,-0.38475 0.0989,-0.16345 0.16052,-0.34937 0.13699,-0.41315 -0.0813,-0.22036 0.56803,-0.87763 0.90515,-0.9162 0.0813,-0.009 0.2199,-0.0475 0.30788,-0.0849 0.088,-0.0374 0.20309,-0.0415 0.2558,-0.009 0.0527,0.0324 0.21009,-0.0156 0.34976,-0.10659 0.18448,-0.12024 0.26439,-0.13429 0.29218,-0.0514 0.0277,0.0827 0.0879,0.0877 0.21862,0.0181 0.12809,-0.0682 0.18039,-0.0656 0.18039,0.009 0,0.0707 0.12279,0.0843 0.37592,0.0418 0.25895,-0.0435 0.37593,-0.0294 0.37593,0.0452 0,0.0632 0.10773,0.0959 0.25845,0.0783 0.20189,-0.0235 0.25248,0.005 0.23117,0.13204 -0.0197,0.11731 0.016,0.14561 0.12911,0.10241 0.0961,-0.0367 0.18993,-7e-5 0.2434,0.095 0.0479,0.0851 0.14703,0.15466 0.22037,0.15466 0.0794,0 0.11166,0.0562 0.0798,0.13893 -0.0351,0.091 0.0307,0.1708 0.19091,0.23139 0.28744,0.1087 0.29124,0.12622 0.0927,0.42757 -0.0835,0.12673 -0.10858,0.23042 -0.0558,0.23042 0.17527,0 0.0124,0.3305 -0.24903,0.50525 -0.20074,0.1342 -0.25256,0.23648 -0.23532,0.46443 0.0403,0.53239 -0.0516,0.6864 -0.53193,0.89194 -0.25062,0.10724 -0.52494,0.19499 -0.60961,0.19499 -0.2867,0 -0.10013,0.32177 0.35233,0.60763 0.24413,0.15425 0.44465,0.32853 0.4456,0.3873 9.5e-4,0.0588 0.0619,0.1298 0.13537,0.15786 0.28256,0.10785 0.6417,0.89561 0.6705,1.47071 0.0325,0.64802 -0.0567,0.73781 -0.68666,0.69164 -0.21968,-0.0161 -0.39942,0.009 -0.39942,0.0567 0,0.0473 -0.21146,-0.11993 -0.46991,-0.37165 -0.25844,-0.25172 -0.4699,-0.52889 -0.4699,-0.61592 0,-0.087 -0.0846,-0.18025 -0.18797,-0.20714 -0.10338,-0.0269 -0.18796,-0.0888 -0.18796,-0.13747 10e-6,-0.16514 -0.46683,-1.10489 -0.54887,-1.10489 -0.0448,0 -0.0668,0.25888 -0.0488,0.57529 0.018,0.3164 -0.006,0.62139 -0.0524,0.67774 -0.0469,0.0564 -0.0892,0.20763 -0.0941,0.33617 -0.0392,1.02591 -0.16725,1.48783 -0.3368,1.21494 z m 1.41681,-5.15445 c 0.11133,-0.21414 0.11026,-0.25628 -0.008,-0.30128 -0.0774,-0.0296 -0.11293,-0.11487 -0.0816,-0.19608 0.0305,-0.0791 0.006,-0.14376 -0.0549,-0.14376 -0.0653,0 -0.0874,-0.0718 -0.0542,-0.1759 0.0368,-0.11531 0.002,-0.19671 -0.10226,-0.23634 -0.21729,-0.0829 -0.5831,0.27657 -0.64868,0.63752 -0.10132,0.55765 -0.10283,0.98622 -0.004,1.02295 0.17289,0.064 0.81756,-0.34674 0.95292,-0.60711 z m -26.30859,4.83087 c -0.29359,-0.25094 -0.38065,-0.7949 -0.17415,-1.08816 0.17811,-0.25293 0.25722,-0.88373 0.12131,-0.96728 -0.056,-0.0345 -0.0775,-0.15954 -0.0476,-0.27796 0.0355,-0.14061 0.007,-0.2333 -0.0816,-0.26719 -0.16106,-0.0615 -0.15318,-0.66506 0.0127,-0.97339 0.0802,-0.14908 0.0805,-0.20929 10e-4,-0.23563 -0.0779,-0.0258 -0.0751,-0.0941 0.0105,-0.25313 0.0914,-0.16983 0.0921,-0.23315 0.003,-0.28767 -0.0699,-0.043 -0.0782,-0.0918 -0.0215,-0.12663 0.0507,-0.0312 0.0923,-0.16655 0.0923,-0.30079 0,-0.20652 -0.0344,-0.23755 -0.22321,-0.20164 -0.12276,0.0233 -0.22321,7.5e-4 -0.22321,-0.0503 0,-0.0538 -0.13816,-0.0704 -0.32893,-0.0396 -0.18393,0.0297 -0.32894,0.0137 -0.32894,-0.0364 0,-0.13434 -0.80251,-0.0331 -1.03799,0.13099 -0.11294,0.0787 -0.25965,0.12234 -0.32602,0.097 -0.0664,-0.0253 -0.14859,-0.001 -0.18272,0.0538 -0.0341,0.0549 -0.12586,0.0999 -0.20387,0.0999 -0.11342,0 -0.10172,-0.056 0.0585,-0.27977 0.14737,-0.20587 0.16211,-0.26521 0.0558,-0.22463 -0.15085,0.0576 -0.43124,-0.15715 -0.43124,-0.33027 0,-0.0551 -0.068,-0.10016 -0.15103,-0.10016 -0.10247,0 -0.13166,-0.0502 -0.0908,-0.15612 0.0331,-0.0859 0.0101,-0.18697 -0.0513,-0.22467 -0.0755,-0.0464 0.0508,-0.25422 0.39116,-0.64342 l 0.50267,-0.57487 0.85091,0.0251 c 0.468,0.0138 0.90644,-0.009 0.97431,-0.051 0.0755,-0.0465 0.19302,-0.0134 0.30267,0.0853 0.16479,0.14834 0.21409,0.14996 0.6108,0.0201 0.35823,-0.11731 0.42307,-0.11935 0.38165,-0.012 -0.0374,0.0968 0.0446,0.12932 0.32604,0.12932 0.24681,0 0.39443,0.048 0.42981,0.13969 0.0296,0.0768 0.0959,0.11388 0.14718,0.0823 0.0513,-0.0316 0.2689,-0.0687 0.48355,-0.0826 0.21465,-0.0139 0.49204,-0.0576 0.61642,-0.0971 0.17003,-0.054 0.20803,-0.0426 0.15313,0.0457 -0.0571,0.0919 -0.0305,0.0949 0.12217,0.0136 0.10737,-0.0571 0.4028,-0.12107 0.65653,-0.14204 0.40452,-0.0334 0.49761,-0.005 0.75595,0.22954 0.35752,0.3248 0.36977,0.44285 0.0542,0.52165 l -0.24047,0.06 0.19348,0.20485 c 0.24252,0.25678 0.24378,0.33302 0.006,0.33302 -0.10338,0 -0.18796,0.0421 -0.18796,0.0935 0,0.0514 -0.0634,0.0935 -0.14098,0.0935 -0.15909,0 -0.18139,0.16559 -0.0501,0.37211 0.12658,0.19911 -0.78863,0.3711 -1.43442,0.26956 -0.51586,-0.0811 -0.67205,0.005 -0.57458,0.31652 0.0337,0.10787 0.001,0.16359 -0.0961,0.16359 -0.20188,0 -0.18466,0.12437 0.046,0.33198 0.12986,0.11691 0.176,0.24247 0.14062,0.38269 -0.029,0.11478 -0.007,0.2369 0.0493,0.27137 0.0561,0.0345 0.0765,0.16343 0.0454,0.28658 -0.0343,0.13602 0.005,0.31688 0.0995,0.46074 0.14685,0.22293 0.14579,0.24422 -0.0181,0.3634 -0.1477,0.10742 -0.15506,0.14934 -0.0486,0.27692 0.0999,0.11978 0.10185,0.17861 0.009,0.28938 -0.0638,0.0765 -0.0894,0.20801 -0.0569,0.29232 0.0354,0.0917 -0.006,0.20079 -0.10341,0.27152 -0.13325,0.0969 -0.14119,0.14383 -0.0441,0.26025 0.0687,0.0824 0.0817,0.16466 0.0308,0.19593 -0.0482,0.0296 -0.11632,0.24373 -0.15129,0.47573 -0.035,0.232 -0.11387,0.4273 -0.17531,0.43399 -0.0614,0.007 -0.37194,0.022 -0.68999,0.0341 -0.47951,0.0182 -0.61928,-0.0131 -0.81837,-0.18324 z m 6.82665,0.0286 c -0.27946,-0.17193 -0.31919,-0.17494 -0.51432,-0.039 -0.28433,0.1981 -0.38955,0.18547 -0.33036,-0.0396 0.0584,-0.2221 -0.0194,-0.23654 -0.26772,-0.0497 -0.26654,0.20053 -0.35144,0.17355 -0.28481,-0.0905 0.0435,-0.17246 0.0216,-0.2337 -0.0838,-0.2337 -0.18848,0 -0.1806,-0.0901 0.0217,-0.24807 0.1486,-0.11607 0.13726,-0.12608 -0.11748,-0.10379 -0.22358,0.0196 -0.27622,-0.009 -0.25432,-0.13892 0.0164,-0.097 -0.0314,-0.1636 -0.11748,-0.1636 -0.0798,0 -0.14509,-0.0355 -0.14509,-0.0789 0,-0.14331 0.92629,-0.85988 0.98643,-0.76309 0.0322,0.0518 0.19885,0.0941 0.37044,0.0941 0.25878,0 0.33212,-0.0483 0.43002,-0.28345 0.0649,-0.15589 0.0924,-0.3089 0.0612,-0.34001 -0.0313,-0.0311 0.0265,-0.17297 0.12832,-0.31525 0.10186,-0.14227 0.18519,-0.32333 0.18519,-0.40233 0,-0.079 0.0424,-0.16972 0.0942,-0.20158 0.0608,-0.0374 0.0625,-0.1169 0.005,-0.22411 -0.0492,-0.0914 -0.0644,-0.26142 -0.0338,-0.37782 0.0344,-0.13093 0.006,-0.24256 -0.0753,-0.29271 -0.10674,-0.0661 -0.10923,-0.11593 -0.0135,-0.26961 0.16475,-0.26441 0.1531,-0.28457 -0.16446,-0.28457 -0.2005,0 -0.28195,-0.045 -0.28195,-0.1558 0,-0.0857 -0.0267,-0.12924 -0.0593,-0.0968 -0.0326,0.0325 -0.13837,0.017 -0.23495,-0.0344 -0.11603,-0.0618 -0.2345,-0.0621 -0.3492,-10e-4 -0.24899,0.13255 -0.8602,-0.0669 -0.8602,-0.28069 0,-0.0899 -0.0529,-0.18118 -0.11748,-0.20282 -0.0911,-0.0305 -0.088,-0.0748 0.0139,-0.19767 0.11433,-0.13776 0.10839,-0.1751 -0.0457,-0.28721 -0.17351,-0.12619 -0.17348,-0.13291 10e-4,-0.32491 0.0981,-0.10782 0.22538,-0.29041 0.28284,-0.40574 0.11372,-0.22827 0.71106,-0.36168 0.71106,-0.15882 0,0.0807 0.29779,0.0947 1.13272,0.0532 0.62299,-0.0309 1.24278,-0.0837 1.37731,-0.11732 0.21745,-0.0543 0.23857,-0.0381 0.19028,0.14552 -0.0491,0.18692 -0.0282,0.20087 0.22037,0.14657 0.21312,-0.0466 0.27469,-0.0269 0.27469,0.0876 0,0.0907 0.0816,0.14779 0.21145,0.148 0.28396,4.7e-4 0.82234,0.33596 0.82234,0.51243 0,0.0779 -0.0423,0.1416 -0.094,0.1416 -0.0517,0 -0.094,0.10268 -0.094,0.22819 0,0.1255 -0.0424,0.25425 -0.0942,0.28612 -0.063,0.0387 -0.063,0.11599 0,0.23307 0.13626,0.25325 0.11577,0.40262 -0.0467,0.3406 -0.0775,-0.0296 -0.14098,-0.0131 -0.14098,0.0367 0,0.0498 -0.13105,0.0906 -0.29123,0.0906 -0.39076,0 -0.95399,0.27175 -0.89267,0.4307 0.0264,0.0683 0.004,0.15117 -0.0496,0.18414 -0.0536,0.033 -0.0728,0.15793 -0.0425,0.27771 0.0302,0.11977 0.0104,0.24513 -0.0439,0.27857 -0.0683,0.042 -0.0659,0.1004 0.008,0.1886 0.0587,0.0703 0.0806,0.16978 0.0487,0.22108 -0.0319,0.0513 -0.031,0.20006 0.002,0.33057 0.0482,0.19097 0.10177,0.22682 0.27456,0.18368 0.11808,-0.0295 0.24295,-0.008 0.27749,0.0475 0.0345,0.0556 0.14797,0.10106 0.25209,0.10106 0.13002,0 0.17913,0.0512 0.15681,0.16359 -0.0185,0.0934 0.0491,0.20492 0.15758,0.25984 0.10454,0.0529 0.19072,0.13707 0.19151,0.18697 7.5e-4,0.0499 0.0279,0.13278 0.0602,0.1842 0.14326,0.22787 -0.009,0.80983 -0.29647,1.13592 -0.23264,0.26355 -0.37799,0.34251 -0.67049,0.36421 -0.2054,0.0152 -0.42558,0.0707 -0.48929,0.12333 -0.0637,0.0526 -0.27291,0.0811 -0.4649,0.0634 -0.19198,-0.0177 -0.34906,0.006 -0.34906,0.0519 0,0.13128 -0.20673,0.0861 -0.5378,-0.11763 z m 5.54339,0.0715 c -0.0875,-0.0487 -0.28743,-0.11572 -0.44427,-0.14892 -0.24041,-0.0509 -0.28225,-0.10073 -0.26659,-0.31761 0.017,-0.23528 -0.004,-0.25238 -0.24213,-0.20029 -0.3756,0.082 -0.76325,-0.0883 -0.76325,-0.33545 0,-0.11129 -0.0693,-0.25272 -0.1539,-0.31428 -0.13995,-0.1018 -0.13155,-0.14988 0.0927,-0.53044 0.17299,-0.29363 0.21697,-0.44794 0.14739,-0.51716 -0.0546,-0.0543 -0.10801,-0.15673 -0.11881,-0.22772 -0.0108,-0.071 -0.0538,-0.18351 -0.0956,-0.25004 -0.0441,-0.0703 -0.0173,-0.21 0.064,-0.3334 0.12544,-0.19043 0.12384,-0.22253 -0.0154,-0.30993 -0.13664,-0.0858 -0.11275,-0.14111 0.1986,-0.46001 0.19718,-0.20196 0.33173,-0.42004 0.30382,-0.4924 -0.0276,-0.0714 -0.003,-0.18582 0.0536,-0.25417 0.057,-0.0684 0.0777,-0.16607 0.046,-0.21714 -0.0317,-0.0511 0.0669,-0.18452 0.21928,-0.29655 0.15234,-0.11203 0.25656,-0.25662 0.2316,-0.32131 -0.025,-0.0647 0.0869,-0.2113 0.2485,-0.32578 0.16164,-0.11448 0.27396,-0.25978 0.24962,-0.32288 -0.0401,-0.10405 0.18402,-0.35533 0.61705,-0.69171 0.21875,-0.16993 0.85315,-0.30662 0.92044,-0.19832 0.0314,0.0505 0.19903,0.0411 0.40914,-0.023 0.27277,-0.0833 0.39784,-0.0826 0.53528,0.003 0.0986,0.0613 0.32794,0.1114 0.50955,0.1114 0.18448,0 0.33021,0.047 0.33021,0.10655 0,0.0586 0.0724,0.15922 0.16092,0.22359 0.1328,0.0966 0.13996,0.14217 0.0409,0.26086 -0.10016,0.12004 -0.0879,0.1609 0.074,0.24711 0.25292,0.13465 0.2451,0.20218 -0.0611,0.52711 -0.14031,0.1489 -0.25661,0.33382 -0.25845,0.41095 -0.003,0.13027 -0.34613,0.27092 -1.01033,0.41425 -0.17627,0.038 -0.23852,0.0981 -0.2014,0.19433 0.0328,0.085 -8.5e-4,0.13927 -0.0863,0.13927 -0.077,0 -0.15987,0.0754 -0.18408,0.16743 -0.0259,0.0984 -0.21436,0.2218 -0.45738,0.29936 -0.22734,0.0726 -0.5031,0.22495 -0.61279,0.33864 -0.18044,0.18702 -0.18551,0.22058 -0.0533,0.35211 0.13224,0.13154 0.13051,0.16261 -0.0181,0.32599 -0.10765,0.11832 -0.1297,0.20187 -0.0639,0.24229 0.0691,0.0424 0.0706,0.11702 0.005,0.23906 -0.0832,0.1547 -0.0502,0.18916 0.2582,0.2696 0.77092,0.20105 0.87708,0.21354 0.99411,0.11693 0.18237,-0.15055 0.19786,-0.82061 0.0205,-0.8883 -0.0793,-0.0302 -0.14411,-0.11942 -0.14411,-0.19816 0,-0.0787 -0.0634,-0.14316 -0.14097,-0.14316 -0.15298,0 -0.17781,-0.085 -0.069,-0.23628 0.19764,-0.27497 1.64445,-0.60521 1.76953,-0.40391 0.0291,0.0468 0.19271,0.0589 0.36368,0.027 0.18518,-0.0346 0.33643,-0.0168 0.37414,0.0439 0.0348,0.056 0.17182,0.10188 0.30445,0.10188 0.22093,0 0.23614,0.025 0.1813,0.29768 -0.0665,0.33079 -0.30298,0.63714 -0.49179,0.63714 -0.1468,0 -0.34875,0.34178 -0.2735,0.46289 0.0291,0.0468 0.0128,0.10973 -0.0362,0.13985 -0.049,0.0301 -0.0737,0.22233 -0.0548,0.42713 0.0188,0.2048 -0.002,0.37237 -0.0458,0.37237 -0.044,0 -0.17757,0.15775 -0.29678,0.35055 -0.11922,0.19281 -0.38181,0.52935 -0.58353,0.74786 -0.28365,0.30727 -0.43433,0.3973 -0.66493,0.3973 -0.16399,0 -0.34438,-0.046 -0.40085,-0.10214 -0.0743,-0.0739 -0.16402,-0.0687 -0.32424,0.0188 -0.26469,0.14453 -0.86752,0.17027 -1.0898,0.0465 z m 5.21489,0.0658 c -0.0905,-0.0235 -0.16447,-0.12967 -0.16447,-0.23592 0,-0.10625 -0.0684,-0.24293 -0.15201,-0.30374 -0.13987,-0.10173 -0.13957,-0.1345 0.004,-0.41035 0.0857,-0.16488 0.12934,-0.34246 0.0969,-0.39462 -0.0324,-0.0522 -0.006,-0.15791 0.058,-0.23502 0.0643,-0.0771 0.13234,-0.38024 0.15113,-0.67365 0.071,-1.10819 0.0974,-1.229 0.33735,-1.54189 0.18417,-0.24017 0.21884,-0.3472 0.13842,-0.4272 -0.0804,-0.08 -0.0539,-0.21614 0.10599,-0.54344 0.18913,-0.38723 0.19658,-0.44601 0.0657,-0.51885 -0.209,-0.11633 -0.18676,-0.22943 0.14678,-0.74645 0.27402,-0.42475 0.28304,-0.4645 0.13055,-0.57541 -0.15068,-0.10959 -0.13884,-0.14004 0.14773,-0.37989 0.26092,-0.21838 0.37518,-0.25362 0.70307,-0.21686 0.21535,0.0241 0.46454,0.003 0.55378,-0.0464 0.10831,-0.0603 0.19673,-0.056 0.26597,0.0129 0.16488,0.164 0.79238,0.11996 1.1939,-0.0838 0.44021,-0.22338 0.46991,-0.22657 0.46991,-0.0504 0,0.20154 0.34855,0.48898 0.67061,0.55305 0.15491,0.0308 0.25818,0.0938 0.22948,0.14002 -0.0287,0.0462 0.005,0.13147 0.0756,0.18951 0.17821,0.14711 -0.0625,0.6637 -0.42091,0.9033 -0.17116,0.11442 -0.23391,0.21029 -0.17562,0.26828 0.1615,0.16063 0.0981,0.23062 -0.30718,0.33917 -0.33586,0.09 -0.44457,0.0816 -0.69723,-0.0538 -0.27436,-0.14697 -0.32389,-0.14816 -0.59373,-0.0143 -0.16191,0.0803 -0.35723,0.12209 -0.43404,0.0928 -0.0768,-0.0293 -0.2213,0.0202 -0.32109,0.11003 -0.13947,0.12554 -0.15964,0.20385 -0.0872,0.33852 0.0589,0.10952 0.0604,0.1752 0.004,0.1752 -0.0497,0 -0.1537,0.12621 -0.23106,0.28046 -0.13504,0.26925 -0.13182,0.28267 0.0803,0.33563 0.12154,0.0303 0.30861,0.0275 0.41573,-0.006 0.13497,-0.0426 0.19474,-0.0205 0.19474,0.0721 0,0.0902 0.0725,0.11977 0.22362,0.091 0.27401,-0.0521 0.62356,0.22273 0.61878,0.48652 -0.004,0.22122 -0.66465,0.67302 -1.11519,0.76265 -0.16226,0.0323 -0.31777,0.0953 -0.34559,0.1401 -0.0278,0.0448 -0.15667,0.0814 -0.28633,0.0814 -0.20102,0 -0.22619,0.031 -0.17091,0.21034 0.0357,0.11568 0.10712,0.26292 0.15881,0.32719 0.10231,0.12719 0.66618,0.1464 0.95838,0.0326 0.25559,-0.0995 0.91215,0.0358 1.044,0.21514 0.0605,0.0822 0.19336,0.14952 0.29535,0.14952 0.26933,0 0.31187,0.0811 0.18889,0.35988 -0.13738,0.31145 -0.2399,0.38475 -0.54072,0.38654 -0.13181,7.5e-4 -0.28997,0.0515 -0.35148,0.11267 -0.0615,0.0612 -0.18626,0.13078 -0.27724,0.15468 -0.25562,0.0672 -1.472,0.0131 -1.55528,-0.0691 -0.0848,-0.0837 -0.72472,0.0929 -0.72472,0.19999 0,0.0746 -0.49702,0.0785 -0.77535,0.006 z m -48.28293,-7.97597 v -5.98381 l 4.29964,0.0243 4.29965,0.0243 v 1.68268 1.68268 l -2.13807,0.0251 -2.13808,0.0251 v 0.41892 0.41891 h 2.16157 2.16157 v 1.68268 1.68268 h -2.16157 -2.16157 v 2.15009 2.1501 h -2.16157 -2.16157 z m 8.34415,5.44628 c 0.0846,-0.29564 0.8548,-2.97741 1.71168,-5.95949 l 1.55796,-5.42197 h 2.57739 2.57739 l 1.55797,5.42197 c 0.85687,2.98208 1.62713,5.66385 1.71168,5.95949 l 0.15373,0.53753 h -2.1434 -2.14339 l -0.10649,-0.42067 -0.10649,-0.42067 h -1.501 -1.50099 l -0.10649,0.42067 -0.10649,0.42067 h -2.1434 -2.14339 z m 6.19,-4.93119 c -0.15954,-0.64269 -0.31387,-1.16852 -0.34297,-1.16852 -0.0291,0 -0.18342,0.52583 -0.34296,1.16852 l -0.29008,1.16853 h 0.63304 0.63304 z m 6.51768,1.21878 v -4.24993 l -0.86933,-0.0269 -0.86933,-0.0269 v -1.68268 -1.68268 l 3.82974,-0.0244 3.82974,-0.0244 v 1.73047 1.73047 h -0.84583 -0.84583 v 4.25344 4.25345 h -2.11458 -2.11458 z m -18.16042,-34.44383 -0.30693,-0.27257 -0.0305,-1.71393 c -0.0331,-1.8589 0.0361,-2.30535 0.39332,-2.53815 0.35621,-0.23216 0.83671,-0.28209 1.21233,-0.12598 0.4259,0.17701 0.59855,0.44783 0.68025,1.06705 l 0.0648,0.49078 h -0.38475 c -0.36667,0 -0.38474,-0.0135 -0.38474,-0.28659 0,-0.15762 -0.0438,-0.36796 -0.0973,-0.46741 -0.10875,-0.20212 -0.46311,-0.24038 -0.63577,-0.0686 -0.14405,0.14329 -0.15766,3.08858 -0.0155,3.35281 0.0552,0.1026 0.19606,0.18082 0.32563,0.18082 0.30466,0 0.42292,-0.24905 0.42292,-0.89069 0,-0.45043 -0.0279,-0.53631 -0.18797,-0.57794 -0.14124,-0.0367 -0.18796,-0.12751 -0.18796,-0.36518 v -0.31628 h 0.56389 0.56389 l -0.004,0.77123 c -0.009,1.61151 -0.25215,2.03324 -1.17443,2.03324 -0.43076,0 -0.55796,-0.0424 -0.8171,-0.27257 z m 2.27665,0.2081 c -4.7e-4,-0.0417 0.17687,-1.15898 0.39417,-2.48293 l 0.39509,-2.40716 h 0.52708 0.52707 l 0.35575,2.2202 c 0.19566,1.22111 0.37847,2.33589 0.40624,2.47728 0.0484,0.24664 0.0349,0.25708 -0.33293,0.25708 -0.40814,0 -0.40798,2.8e-4 -0.51651,-0.84135 -0.0126,-0.0974 -0.15267,-0.14886 -0.45847,-0.1685 l -0.44038,-0.0283 -0.0584,0.35547 c -0.0321,0.19551 -0.0665,0.41857 -0.0764,0.49569 -0.0189,0.14702 -0.7205,0.26601 -0.72223,0.1225 z m 1.5986,-1.75561 c 0,-0.18314 -0.29288,-2.14565 -0.32523,-2.17926 -0.0139,-0.0145 -0.0746,0.36412 -0.13471,0.84134 -0.0602,0.47722 -0.134,1.0044 -0.16411,1.1715 -0.0535,0.29673 -0.0468,0.30381 0.28465,0.30381 0.23592,0 0.3394,-0.0419 0.3394,-0.13739 z m 1.40972,-0.6572 v -2.47728 h 0.37592 0.37593 v 2.47728 2.47728 h -0.37593 -0.37592 z m 1.40972,0 v -2.47728 h 0.46811 c 0.4322,0 0.47313,0.0197 0.5334,0.25707 0.0359,0.14139 0.20204,0.78292 0.36918,1.42561 l 0.3039,1.16852 0.009,-1.4256 0.009,-1.4256 h 0.37749 0.37748 l -0.025,2.45391 -0.0251,2.4539 -0.38782,0.0282 -0.38782,0.0282 -0.19539,-0.7293 c -0.10746,-0.40112 -0.31356,-1.19204 -0.45801,-1.7576 l -0.26262,-1.02831 -0.0256,1.75279 -0.0256,1.7528 h -0.32686 -0.32686 z m 14.49311,2.33643 c -0.3398,-0.14685 -0.58387,-0.59473 -0.58387,-1.07142 0,-0.26765 0.0206,-0.28345 0.37025,-0.28345 0.36001,0 0.37106,0.01 0.39942,0.35056 0.0277,0.33279 0.0459,0.35056 0.35811,0.35056 0.29238,0 0.33236,-0.0298 0.35977,-0.26838 0.0544,-0.47322 -0.0724,-0.71721 -0.73335,-1.41184 -0.46955,-0.49345 -0.66512,-0.77474 -0.71219,-1.02433 -0.17513,-0.92855 0.2628,-1.5489 1.09343,-1.5489 0.26103,0 0.55597,0.0433 0.65541,0.0963 0.25194,0.13412 0.4647,0.58012 0.4647,0.97415 0,0.31356 -0.0172,0.33183 -0.31236,0.33183 -0.28281,0 -0.32059,-0.0332 -0.39942,-0.35056 -0.0705,-0.28402 -0.13491,-0.35606 -0.33919,-0.37953 -0.17949,-0.0206 -0.28282,0.0281 -0.35868,0.16907 -0.18225,0.33873 -0.0127,0.75199 0.51607,1.25804 0.71958,0.68863 0.89281,1.01627 0.89323,1.68935 3.8e-4,0.65468 -0.15366,0.93536 -0.61979,1.12909 -0.39161,0.16275 -0.65679,0.16011 -1.05154,-0.0105 z m 5.55551,0.009 c -0.53172,-0.23779 -0.62272,-0.49278 -0.66993,-1.87721 -0.0606,-1.77737 0.0256,-2.44264 0.35941,-2.7747 0.22766,-0.22645 0.33992,-0.26407 0.78812,-0.26407 0.44105,0 0.56914,0.0413 0.82052,0.26475 0.25225,0.22418 0.30465,0.34592 0.34206,0.7946 l 0.0442,0.52985 h -0.38216 c -0.38083,0 -0.38226,-0.001 -0.41106,-0.38778 -0.0335,-0.44935 -0.25521,-0.65721 -0.5223,-0.48963 -0.14691,0.0922 -0.16447,0.28669 -0.16447,1.82242 v 1.71924 h 0.32894 0.32893 l 0.0276,-0.67775 c 0.0256,-0.62923 0.0139,-0.67775 -0.16447,-0.67775 -0.16144,0 -0.19208,-0.0597 -0.19208,-0.37393 v -0.37392 h 0.56389 0.56389 v 0.98456 c 0,1.05643 -0.12803,1.54442 -0.45018,1.71592 -0.32836,0.1748 -0.89753,0.20554 -1.2109,0.0654 z m 2.78885,0.01 c -0.59649,-0.20234 -0.66754,-0.48928 -0.63719,-2.57335 l 0.0263,-1.8074 0.30693,-0.27258 c 0.25661,-0.22791 0.38797,-0.27259 0.80142,-0.27259 0.77478,0 1.02921,0.24404 1.1452,1.09842 l 0.0666,0.49078 h -0.38475 c -0.36667,0 -0.38474,-0.0135 -0.38474,-0.28659 0,-0.15763 -0.0438,-0.36796 -0.0973,-0.46741 -0.1266,-0.23529 -0.52466,-0.23529 -0.65126,0 -0.14217,0.26423 -0.12856,3.20952 0.0155,3.35281 0.17266,0.17174 0.52702,0.13348 0.63577,-0.0686 0.0535,-0.0995 0.0973,-0.41495 0.0973,-0.70112 0,-0.45797 -0.0225,-0.5203 -0.18797,-0.5203 -0.15702,0 -0.18796,-0.0623 -0.18796,-0.37859 v -0.37859 l 0.54039,0.028 0.5404,0.028 -0.008,1.04475 c -0.009,1.18494 -0.11235,1.44891 -0.65404,1.67404 -0.37827,0.15721 -0.54423,0.15895 -0.98251,0.0103 z m 12.15419,-0.0143 c -0.58593,-0.25351 -0.64147,-0.45582 -0.64147,-2.33666 0,-1.86609 0.0734,-2.20661 0.52547,-2.43916 0.33846,-0.1741 0.96014,-0.1741 1.2986,0 0.45211,0.23255 0.52547,0.57307 0.52547,2.43913 0,1.89321 -0.0552,2.08843 -0.66216,2.34068 -0.39398,0.16374 -0.6606,0.16272 -1.04591,-0.004 z m 0.86223,-2.37743 c 0,-1.53573 -0.0175,-1.73024 -0.16446,-1.82242 -0.11988,-0.0752 -0.20906,-0.0753 -0.32894,-1.1e-4 -0.1446,0.0906 -0.16758,0.29905 -0.19027,1.72565 -0.0142,0.89242 -0.004,1.67933 0.0229,1.74869 0.0306,0.0794 0.16204,0.11524 0.35474,0.0968 l 0.30608,-0.0293 z m 4.39972,2.37701 c -0.54718,-0.23672 -0.59347,-0.45536 -0.59347,-2.80322 v -2.108 h 0.37593 0.37592 v 2.03792 c 0,2.1584 0.0204,2.26227 0.44404,2.26227 0.34676,0 0.40179,-0.32733 0.40179,-2.38989 v -1.9103 h 0.32894 0.32893 v 2.17604 c 0,2.41604 -0.0169,2.49096 -0.62014,2.74166 -0.38932,0.1618 -0.6568,0.16014 -1.04194,-0.006 z m -23.78214,-0.21373 c 0.0265,-0.1414 0.20985,-1.25801 0.4074,-2.48136 l 0.35917,-2.22429 0.52067,0.0275 0.52067,0.0275 0.34309,2.0566 c 0.18871,1.13114 0.37104,2.2354 0.40518,2.45391 l 0.0621,0.3973 h -0.37072 c -0.398,0 -0.48255,-0.11806 -0.48534,-0.67774 -0.001,-0.24569 -0.0219,-0.25708 -0.46693,-0.25708 -0.46502,0 -0.46573,4.8e-4 -0.52422,0.35056 -0.0937,0.56062 -0.11292,0.58426 -0.47565,0.58426 -0.3239,0 -0.34086,-0.0147 -0.2954,-0.25707 z m 1.53714,-1.85425 c -0.0339,-0.28717 -0.11152,-0.84455 -0.17242,-1.23864 l -0.11073,-0.71651 -0.16245,1.07504 c -0.22512,1.48976 -0.23544,1.40223 0.16542,1.40223 h 0.34187 z m 14.227,2.07503 c 0,-0.0554 -0.64512,-4.26712 -0.70766,-4.62008 l -0.0548,-0.30945 0.4031,0.029 0.40311,0.029 0.24948,1.8229 c 0.13721,1.0026 0.25876,1.80187 0.27011,1.77616 0.0113,-0.0257 0.13242,-0.84601 0.26905,-1.8229 l 0.24843,-1.77616 0.35243,-0.029 c 0.19383,-0.016 0.35243,-0.0131 0.35243,0.006 0,0.0522 -0.64488,4.27168 -0.70712,4.62672 -0.0524,0.29916 -0.0611,0.30381 -0.56589,0.30381 -0.28195,0 -0.51264,-0.0163 -0.51264,-0.0363 z m 4.98101,-2.44099 v -2.47728 h 0.37417 0.37416 l 0.0253,2.12673 0.0253,2.12672 0.63437,0.0276 0.63437,0.0276 v 0.32292 0.32291 h -1.03379 -1.0338 z m 5.2849,0.0234 0.0251,-2.4539 0.53265,-0.0278 c 0.44666,-0.0233 0.54028,-6.8e-4 0.57999,0.14022 0.026,0.0924 0.14118,0.87378 0.25584,1.73637 0.11467,0.86259 0.22368,1.55323 0.24225,1.53476 0.0249,-0.0247 0.50338,-3.26077 0.50379,-3.40692 3e-5,-0.0129 0.25381,-0.0234 0.56395,-0.0234 h 0.56389 v 2.47728 2.47728 h -0.37593 -0.37592 l -0.01,-1.79953 c -0.0107,-2.00863 0.002,-2.0298 -0.40936,0.70112 l -0.16529,1.09841 h -0.31448 c -0.36248,0 -0.30503,0.17816 -0.64811,-2.00987 l -0.21987,-1.40223 -0.009,1.70605 -0.009,1.70605 h -0.37748 -0.37749 z m 3.8313,-0.0264 v -2.48034 l 1.05729,0.0264 1.05729,0.0264 v 0.32718 0.32719 l -0.68137,0.0275 -0.68136,0.0275 v 0.65028 0.65028 h 0.56389 0.56389 v 0.32719 0.32719 h -0.56389 -0.56389 v 0.7946 0.7946 h 0.70486 0.70486 v 0.32719 0.32718 h -1.08079 -1.08078 z"
       id="path306"
       inkscape:connector-curvature="0" />
  </g>
  <g
     inkscape:groupmode="layer"
     id="layer2"
     inkscape:label="Artwork"
     style="display:inline">
    <g
       id="g2108"
       transform="matrix(0.41070072,0,0,0.41070072,416.44951,261.19132)">
      <g
         style="display:inline"
         inkscape:label="Lines"
         id="layer2-1" />
      <g
         id="g1790"
         transform="matrix(1.0571141,0,0,1.0571141,-4.4272482,48.101813)">
        <g
           style="display:inline;fill:#c8c8c8;fill-opacity:1;stroke:#00ff00;stroke-opacity:1"
           inkscape:label="Fill"
           id="layer1-2">
          <g
             id="Fill"
             style="fill:#c8c8c8;fill-opacity:1;stroke:#00ff00;stroke-opacity:1">
            <path
               style="fill:#c8c8c8;stroke:#00ff00;stroke-width:0.75px;stroke-miterlimit:10;fill-opacity:1;stroke-opacity:1"
               inkscape:connector-curvature="0"
               id="path1250"
               transform="translate(-38.05,-95.92)"
               d="m 66.49,219.58 1.16,5.77 -5.37,0.87 -0.35,-1.14 -0.5,0.1 c -12.23,2.1 -12.26,-3.38 -12.26,-3.38 0,0 -0.78,-2.52 6.35,-2.38 l 0.5,-1.32 a 18.27,18.27 0 0 0 10.47,1.48 z"
               class="cls-2" />
            <path
               style="fill:#c8c8c8;stroke:#00ff00;stroke-width:0.75px;stroke-miterlimit:10;fill-opacity:1;stroke-opacity:1"
               inkscape:connector-curvature="0"
               id="path1252"
               transform="translate(-38.05,-95.92)"
               d="m 123.14,222 c 0,0 0.76,1.36 1.58,1.36 0.82,0 6.48,0.84 6,3.47 -0.48,2.63 -5,4.23 -12.57,1.44 l -0.82,1 -4.55,-0.27 0.16,-6.57 z"
               class="cls-2" />
            <path
               style="fill:#c8c8c8;stroke:#00ff00;stroke-width:0.75px;stroke-miterlimit:10;fill-opacity:1;stroke-opacity:1"
               inkscape:connector-curvature="0"
               id="path1254"
               transform="translate(-38.05,-95.92)"
               d="m 45.89,155.26 c 1.09,1.38 3.87,2.33 3.87,2.33 l 0.6,-0.31 c 0,0 -4.78,-2.41 -4.47,-2.02 z"
               class="cls-2" />
            <path
               style="fill:#c8c8c8;stroke:#00ff00;stroke-width:0.75px;stroke-miterlimit:10;fill-opacity:1;stroke-opacity:1"
               inkscape:connector-curvature="0"
               id="path1256"
               transform="translate(-38.05,-95.92)"
               d="m 57.3,154 -1,0.77 c 0,0 -5.23,-1.92 -6,-3.18 -0.77,-1.26 7,2.41 7,2.41 z"
               class="cls-2" />
            <path
               style="fill:#c8c8c8;stroke:#00ff00;stroke-width:0.75px;stroke-miterlimit:10;fill-opacity:1;stroke-opacity:1"
               inkscape:connector-curvature="0"
               id="path1258"
               transform="translate(-38.05,-95.92)"
               d="m 48.12,146.15 0.42,-0.47 5.21,3 c 0,0 2.56,1.95 -5.63,-2.53 z"
               class="cls-2" />
            <path
               style="fill:#c8c8c8;stroke:#00ff00;stroke-width:0.75px;stroke-miterlimit:10;fill-opacity:1;stroke-opacity:1"
               inkscape:connector-curvature="0"
               id="path1260"
               transform="translate(-38.05,-95.92)"
               d="m 52.62,141.46 -0.56,0.53 6.73,3.11 c 0,0 2.71,-0.6 -6.17,-3.64 z"
               class="cls-2" />
            <path
               style="fill:#c8c8c8;stroke:#00ff00;stroke-width:0.75px;stroke-miterlimit:10;fill-opacity:1;stroke-opacity:1"
               inkscape:connector-curvature="0"
               id="path1262"
               transform="translate(-38.05,-95.92)"
               d="m 63.37,139.07 c 3.78,0.83 7.54,6.48 5,2.18 -2.54,-4.3 -9.38,-3.7 -9.38,-3.7 0,0 -1.85,0.14 4.38,1.52 z"
               class="cls-2" />
            <path
               style="fill:#c8c8c8;stroke:#00ff00;stroke-width:0.75px;stroke-miterlimit:10;fill-opacity:1;stroke-opacity:1"
               inkscape:connector-curvature="0"
               id="path1264"
               transform="translate(-38.05,-95.92)"
               d="m 60.39,152.09 a 3.14,3.14 0 0 0 1.28,-0.83 c 0.52,-0.59 5.88,4 5.88,4 0,0 1.45,1.88 -7.16,-3.17 z"
               class="cls-2" />
            <path
               style="fill:#c8c8c8;stroke:#00ff00;stroke-width:0.75px;stroke-miterlimit:10;fill-opacity:1;stroke-opacity:1"
               inkscape:connector-curvature="0"
               id="path1266"
               transform="translate(-38.05,-95.92)"
               d="m 59.3,158.89 v 1.36 c 0,0 3.7,4.08 6.4,4.52 2.7,0.44 0.21,-0.99 -6.4,-5.88 z"
               class="cls-2" />
            <path
               style="fill:#c8c8c8;stroke:#00ff00;stroke-width:0.75px;stroke-miterlimit:10;fill-opacity:1;stroke-opacity:1"
               inkscape:connector-curvature="0"
               id="path1268"
               transform="translate(-38.05,-95.92)"
               d="m 59.79,167.94 -0.26,1 c 0,0 6.47,6.06 9.75,6.06 3.28,0 -4.89,-2.43 -9.49,-7.06 z"
               class="cls-2" />
            <path
               style="fill:#c8c8c8;stroke:#00ff00;stroke-width:0.75px;stroke-miterlimit:10;fill-opacity:1;stroke-opacity:1"
               inkscape:connector-curvature="0"
               id="path1270"
               transform="translate(-38.05,-95.92)"
               d="M 58.43,173.24 58,175.31 c 0,0 13.29,14.18 21.75,14.23 8.46,0.05 4.23,-0.35 -0.44,-1.16 -4.67,-0.81 -12.23,-6.96 -20.88,-15.14 z"
               class="cls-2" />
            <path
               style="fill:#c8c8c8;stroke:#00ff00;stroke-width:0.75px;stroke-miterlimit:10;fill-opacity:1;stroke-opacity:1"
               inkscape:connector-curvature="0"
               id="path1272"
               transform="translate(-38.05,-95.92)"
               d="M 63.72,202.88"
               class="cls-2" />
            <path
               style="fill:#c8c8c8;stroke:#00ff00;stroke-width:0.75px;stroke-miterlimit:10;fill-opacity:1;stroke-opacity:1"
               inkscape:connector-curvature="0"
               id="path1274"
               transform="translate(-38.05,-95.92)"
               d="M 57.52,187.69 57.64,186 c 0,0 4.71,7.84 10.53,9.65 5.82,1.81 -2.31,4.61 -10.65,-7.96 z"
               class="cls-2" />
            <path
               style="fill:#c8c8c8;stroke:#00ff00;stroke-width:0.75px;stroke-miterlimit:10;fill-opacity:1;stroke-opacity:1"
               inkscape:connector-curvature="0"
               id="path1276"
               transform="translate(-38.05,-95.92)"
               d="m 55.08,198.58 -0.28,1.88 c 0,0 3.92,6.09 8.92,5.31 5,-0.78 -5.82,0.23 -8.64,-7.19 z"
               class="cls-2" />
            <path
               style="fill:#c8c8c8;stroke:#00ff00;stroke-width:0.75px;stroke-miterlimit:10;fill-opacity:1;stroke-opacity:1"
               inkscape:connector-curvature="0"
               id="path1278"
               transform="translate(-38.05,-95.92)"
               d="m 67.44,204.05 a 45.55,45.55 0 0 0 14.69,-3.66 c 7.05,-3.26 -3.9,5.36 -14.69,3.66 z"
               class="cls-2" />
            <path
               style="fill:#c8c8c8;stroke:#00ff00;stroke-width:0.75px;stroke-miterlimit:10;fill-opacity:1;stroke-opacity:1"
               inkscape:connector-curvature="0"
               id="path1280"
               transform="translate(-38.05,-95.92)"
               d="m 76.19,207.39 -2.12,2.82 a 14.92,14.92 0 0 1 -8.72,1.31 c -5.24,-0.69 8.03,-0.7 10.84,-4.13 z"
               class="cls-2" />
            <path
               style="fill:#c8c8c8;stroke:#00ff00;stroke-width:0.75px;stroke-miterlimit:10;fill-opacity:1;stroke-opacity:1"
               inkscape:connector-curvature="0"
               id="path1282"
               transform="translate(-38.05,-95.92)"
               d="M 79.14,193.3"
               class="cls-2" />
            <path
               style="fill:#c8c8c8;stroke:#00ff00;stroke-width:0.75px;stroke-miterlimit:10;fill-opacity:1;stroke-opacity:1"
               inkscape:connector-curvature="0"
               id="path1284"
               transform="translate(-38.05,-95.92)"
               d="m 89.53,197.21 a 5.9,5.9 0 0 0 -1.94,1.29 c -1.31,1.13 -10.29,-5.61 -8.72,-5 1.57,0.61 4.02,3.43 10.66,3.71 z"
               class="cls-2" />
            <path
               style="fill:#c8c8c8;stroke:#00ff00;stroke-width:0.75px;stroke-miterlimit:10;fill-opacity:1;stroke-opacity:1"
               inkscape:connector-curvature="0"
               id="path1286"
               transform="translate(-38.05,-95.92)"
               d="m 69.27,130.75 -2,1 c 0,0 2.51,0.47 7.66,3.94 5.15,3.47 7.4,7.32 6.32,5 -1.08,-2.32 -2.25,-4.13 -11.98,-9.94 z"
               class="cls-2" />
            <path
               style="fill:#c8c8c8;stroke:#00ff00;stroke-width:0.75px;stroke-miterlimit:10;fill-opacity:1;stroke-opacity:1"
               inkscape:connector-curvature="0"
               id="path1288"
               transform="translate(-38.05,-95.92)"
               d="m 76.58,128.26 a 7.9,7.9 0 0 1 2.53,-0.41 c 1.56,0 0,2.6 6.5,5.76 6.5,3.16 4.35,4.3 2,2.67 -2.35,-1.63 -7.72,-3.83 -11.03,-8.02 z"
               class="cls-2" />
            <path
               style="fill:#c8c8c8;stroke:#00ff00;stroke-width:0.75px;stroke-miterlimit:10;fill-opacity:1;stroke-opacity:1"
               inkscape:connector-curvature="0"
               id="path1290"
               transform="translate(-38.05,-95.92)"
               d="m 106.35,126.3 0.2,0.59 1.4,0.35 c 0,0 -6.8,6.69 -9.51,8.12 -2.71,1.43 -3.34,1.25 -1.77,-0.2 1.57,-1.45 8.43,-6.89 9.68,-8.86 z"
               class="cls-2" />
            <path
               style="fill:#c8c8c8;stroke:#00ff00;stroke-width:0.75px;stroke-miterlimit:10;fill-opacity:1;stroke-opacity:1"
               inkscape:connector-curvature="0"
               id="path1292"
               transform="translate(-38.05,-95.92)"
               d="m 119.37,130.39 1.92,0.73 c 0,0 -7.07,3.45 -11.18,7.55 -4.11,4.1 -6.19,3.07 -3,0.54 3.19,-2.53 9,-7.29 12.26,-8.82 z"
               class="cls-2" />
            <path
               style="fill:#c8c8c8;stroke:#00ff00;stroke-width:0.75px;stroke-miterlimit:10;fill-opacity:1;stroke-opacity:1"
               inkscape:connector-curvature="0"
               id="path1294"
               transform="translate(-38.05,-95.92)"
               d="m 124.68,132.68 1.25,0.7 a 55.32,55.32 0 0 1 -4.07,6 c -2.71,3.52 -0.36,-1.63 -0.36,-1.63 z"
               class="cls-2" />
            <path
               style="fill:#c8c8c8;stroke:#00ff00;stroke-width:0.75px;stroke-miterlimit:10;fill-opacity:1;stroke-opacity:1"
               inkscape:connector-curvature="0"
               id="path1296"
               transform="translate(-38.05,-95.92)"
               d="m 130.19,141.86 2.17,-1.44 c 0,0 2.87,-0.95 0.9,0.72 -1.97,1.67 -4.37,3.56 -4.37,3.56 0,0 -2.57,2.09 -1.41,0.33 a 19.61,19.61 0 0 1 2.71,-3.17 z"
               class="cls-2" />
            <path
               style="fill:#c8c8c8;stroke:#00ff00;stroke-width:0.75px;stroke-miterlimit:10;fill-opacity:1;stroke-opacity:1"
               inkscape:connector-curvature="0"
               id="path1298"
               transform="translate(-38.05,-95.92)"
               d="m 127.61,150.36 1.51,1.17 a 9.82,9.82 0 0 0 3.91,-3.72 c 1.7,-2.74 -1.28,-0.3 -1.28,-0.3 a 8.87,8.87 0 0 1 -4.14,2.85 z"
               class="cls-2" />
            <path
               style="fill:#c8c8c8;stroke:#00ff00;stroke-width:0.75px;stroke-miterlimit:10;fill-opacity:1;stroke-opacity:1"
               inkscape:connector-curvature="0"
               id="path1300"
               transform="translate(-38.05,-95.92)"
               d="M 132.74,148.91"
               class="cls-2" />
            <path
               style="fill:#c8c8c8;stroke:#00ff00;stroke-width:0.75px;stroke-miterlimit:10;fill-opacity:1;stroke-opacity:1"
               inkscape:connector-curvature="0"
               id="path1302"
               transform="translate(-38.05,-95.92)"
               d="m 141.94,144.86 0.51,0.47 a 28.58,28.58 0 0 1 -4.25,4.53 c -2.93,2.6 0,-1 0,-1 z"
               class="cls-2" />
            <path
               style="fill:#c8c8c8;stroke:#00ff00;stroke-width:0.75px;stroke-miterlimit:10;fill-opacity:1;stroke-opacity:1"
               inkscape:connector-curvature="0"
               id="path1304"
               transform="translate(-38.05,-95.92)"
               d="m 136.9,156 1.44,0.59 a 7,7 0 0 0 2.34,-3.85 c 0.3,-2.2 -1.08,0.08 -1.08,0.08 0,0 -1.04,2.53 -2.7,3.18 z"
               class="cls-2" />
            <path
               style="fill:#c8c8c8;stroke:#00ff00;stroke-width:0.75px;stroke-miterlimit:10;fill-opacity:1;stroke-opacity:1"
               inkscape:connector-curvature="0"
               id="path1306"
               transform="translate(-38.05,-95.92)"
               d="m 124.9,155.06 -0.09,2.24 c 0,0 -4.66,4.43 -6.92,5.34 -2.26,0.91 -5.89,2.73 -0.91,-0.75 4.98,-3.48 7.2,-4.99 7.92,-6.83 z"
               class="cls-2" />
            <path
               style="fill:#c8c8c8;stroke:#00ff00;stroke-width:0.75px;stroke-miterlimit:10;fill-opacity:1;stroke-opacity:1"
               inkscape:connector-curvature="0"
               id="path1308"
               transform="translate(-38.05,-95.92)"
               d="m 124.06,162.78 -0.9,3.65 A 52.08,52.08 0 0 1 112.52,177 c -7.21,5.52 0.83,-3.26 0.83,-3.26 z"
               class="cls-2" />
            <path
               style="fill:#c8c8c8;stroke:#00ff00;stroke-width:0.75px;stroke-miterlimit:10;fill-opacity:1;stroke-opacity:1"
               inkscape:connector-curvature="0"
               id="path1310"
               transform="translate(-38.05,-95.92)"
               d="m 123.91,186.93 -0.86,1.81 c 0,0 -7.63,0.67 -12.7,-2.67 -5.07,-3.34 0.57,-1.22 1.71,-0.62 a 23.24,23.24 0 0 0 11.85,1.48 z"
               class="cls-2" />
            <path
               style="fill:#c8c8c8;stroke:#00ff00;stroke-width:0.75px;stroke-miterlimit:10;fill-opacity:1;stroke-opacity:1"
               inkscape:connector-curvature="0"
               id="path1312"
               transform="translate(-38.05,-95.92)"
               d="m 122.76,192.35 1,2 c 0,0 -4.69,4.48 -13.65,3.07 -8.96,-1.41 1.65,-1 1.65,-1 0,0 9.1,0.15 11,-4.07 z"
               class="cls-2" />
            <path
               style="fill:#c8c8c8;stroke:#00ff00;stroke-width:0.75px;stroke-miterlimit:10;fill-opacity:1;stroke-opacity:1"
               inkscape:connector-curvature="0"
               id="path1314"
               transform="translate(-38.05,-95.92)"
               d="m 98.61,200 3.34,3 c 0,0 8.13,2.63 11.11,2.17 2.98,-0.46 -2,-1.21 -2,-1.21 A 35.94,35.94 0 0 1 98.61,200 Z"
               class="cls-2" />
            <path
               style="fill:#c8c8c8;stroke:#00ff00;stroke-width:0.75px;stroke-miterlimit:10;fill-opacity:1;stroke-opacity:1"
               inkscape:connector-curvature="0"
               id="path1316"
               transform="translate(-38.05,-95.92)"
               d="m 104.89,207.55 0.33,1.53 a 16.19,16.19 0 0 0 7.8,0.88 c 4.14,-0.63 0.4,-1.06 -1,-1 -1.4,0.06 -7.13,-1.41 -7.13,-1.41 z"
               class="cls-2" />
            <path
               style="fill:#c8c8c8;stroke:#00ff00;stroke-width:0.75px;stroke-miterlimit:10;fill-opacity:1;stroke-opacity:1"
               inkscape:connector-curvature="0"
               id="path1318"
               transform="translate(-38.05,-95.92)"
               d="m 125.63,208.48 -0.07,1.64 c 0,0 -1.62,1.38 -7.26,1.81 -5.64,0.43 0.94,-1.23 0.94,-1.23 0,0 5.85,-1.06 6.39,-2.22 z"
               class="cls-2" />
            <path
               style="fill:#c8c8c8;stroke:#00ff00;stroke-width:0.75px;stroke-miterlimit:10;fill-opacity:1;stroke-opacity:1"
               inkscape:connector-curvature="0"
               id="path1320"
               transform="translate(-38.05,-95.92)"
               d="m 108,216.73 1.07,1.83 a 24.25,24.25 0 0 0 7.64,-2.36 c 3.94,-2 -1.17,-0.4 -1.17,-0.4 a 11.21,11.21 0 0 1 -3.8,0 c -2.29,-0.29 -2.21,0.11 -3.74,0.93 z"
               class="cls-2" />
            <path
               style="fill:#c8c8c8;stroke:#00ff00;stroke-width:0.75px;stroke-miterlimit:10;fill-opacity:1;stroke-opacity:1"
               inkscape:connector-curvature="0"
               id="path1322"
               transform="translate(-38.05,-95.92)"
               d="m 89,114.67 a 1.16,1.16 0 0 1 0.14,0.72 c -0.07,0.41 -0.22,0.73 -0.7,0.56 a 1.19,1.19 0 0 0 -1.2,0.39 c -0.31,0.29 -0.4,0.52 -0.88,0.06 -0.48,-0.46 0.31,-1.28 1,-1.55 a 6,6 0 0 0 1,-0.43 0.46,0.46 0 0 1 0.64,0.25 z"
               class="cls-2" />
            <path
               style="fill:#c8c8c8;stroke:#00ff00;stroke-width:0.75px;stroke-miterlimit:10;fill-opacity:1;stroke-opacity:1"
               inkscape:connector-curvature="0"
               id="path1324"
               transform="translate(-38.05,-95.92)"
               d="m 94.31,115.21 c 0,0 0,-1.06 0.91,-0.83 a 5.26,5.26 0 0 1 2,0.88 c 0.34,0.27 1,1.29 -0.37,0.91 -1.37,-0.38 -1.6,0 -1.6,0 0,0 -0.57,0.58 -0.71,0 a 9,9 0 0 1 -0.23,-0.96 z"
               class="cls-2" />
            <path
               style="fill:#c8c8c8;stroke:#00ff00;stroke-width:0.75px;stroke-miterlimit:10;fill-opacity:1;stroke-opacity:1"
               inkscape:connector-curvature="0"
               id="path1326"
               transform="translate(-38.05,-95.92)"
               d="m 91.37,116.66 a 2.36,2.36 0 0 1 1.64,0.67 c 0.59,0.67 0.61,1.13 0,1.28 -0.61,0.15 -0.92,0 -1.06,0.85 -0.14,0.85 -0.58,0.55 -0.74,0.21 a 1.21,1.21 0 0 0 -0.78,-0.76 1.07,1.07 0 0 1 -0.63,-0.67 c 0,0 -0.43,-1.18 1.57,-1.58 z"
               class="cls-2" />
            <path
               style="fill:#c8c8c8;stroke:#00ff00;stroke-width:0.75px;stroke-miterlimit:10;fill-opacity:1;stroke-opacity:1"
               inkscape:connector-curvature="0"
               id="path1328"
               transform="translate(-38.05,-95.92)"
               d="m 89.05,122 c 0,0 1.93,1.32 4.89,-0.63 2.96,-1.95 0.24,3.8 -2.33,3.8 -2.57,0 -3.39,-3 -3.39,-3 0,0 -0.13,-0.99 0.83,-0.17 z"
               class="cls-2" />
            <path
               style="fill:#c8c8c8;stroke:#00ff00;stroke-width:0.75px;stroke-miterlimit:10;fill-opacity:1;stroke-opacity:1"
               inkscape:connector-curvature="0"
               id="path1330"
               transform="translate(-38.05,-95.92)"
               d="m 95.23,121.31 a 5.32,5.32 0 0 1 -3.74,2.17 5.73,5.73 0 0 1 -2.86,-0.35"
               class="cls-2" />
          </g>
        </g>
        <g
           style="display:inline"
           inkscape:label="Lines"
           id="layer2-7">
          <g
             id="Lines">
            <path
               style="fill:none;stroke:#000000;stroke-width:0.75px;stroke-miterlimit:10"
               inkscape:connector-curvature="0"
               id="path1083"
               transform="translate(-38.05,-95.92)"
               d="m 83.35,105.72 a 3.86,3.86 0 0 0 1,-2.27 c 0.27,-1.66 0.41,-3.45 0.41,-3.45 0,0 0.68,-3 3,-3.22 2.32,-0.22 4.31,-0.84 7.81,-0.22 3.5,0.62 3.07,5.44 3.07,5.44 0,0 -0.25,2.44 0.49,3.53"
               class="cls-1" />
            <path
               style="fill:none;stroke:#000000;stroke-width:0.75px;stroke-miterlimit:10"
               inkscape:connector-curvature="0"
               id="path1085"
               transform="translate(-38.05,-95.92)"
               d="m 84.13,104.36 a 25,25 0 0 0 7,0.87 c 0,0 6.58,-0.54 7.72,-1.35"
               class="cls-1" />
            <path
               style="fill:none;stroke:#000000;stroke-width:0.75px;stroke-miterlimit:10"
               inkscape:connector-curvature="0"
               id="path1087"
               transform="translate(-38.05,-95.92)"
               d="m 83.65,105.35 c 0,0 5.69,4 15.29,-0.21"
               class="cls-1" />
            <path
               style="fill:none;stroke:#000000;stroke-width:0.75px;stroke-miterlimit:10"
               inkscape:connector-curvature="0"
               id="path1089"
               transform="translate(-38.05,-95.92)"
               d="m 84.43,102.93 c 0,0 -4.36,0 -4.69,1.9 a 2,2 0 0 0 0.7,1.71"
               class="cls-1" />
            <path
               style="fill:none;stroke:#000000;stroke-width:0.75px;stroke-miterlimit:10"
               inkscape:connector-curvature="0"
               id="path1091"
               transform="translate(-38.05,-95.92)"
               d="m 98.6,102.93 a 4,4 0 0 1 2.75,-0.13 c 1.6,0.4 0.76,2.71 0.76,2.71 a 5.27,5.27 0 0 1 -0.35,0.76 8.56,8.56 0 0 1 -6.76,4.31 c -5.78,0.75 -12,-1.55 -12,-1.55 0,0 -1.9,-3 -3.53,-2.58 -1.63,0.42 -3.74,3.45 -1,8.63 0,0 -2.79,5.66 0.79,8.4 0.79,0.6 1.52,1.19 2.19,1.76 a 24.41,24.41 0 0 1 5.18,5.69 c 1.36,2.25 3.8,0.41 3.8,0.41 0,0 0.87,1.19 3.31,0.84 2.44,-0.35 5.28,-1 7.32,-3.82 a 49.74,49.74 0 0 1 4.41,-5.75 c 3.12,-3.66 1.28,-7 1.28,-7 l -1.3,-3 0.54,-2.9 c 0,0 0.54,-2.4 -0.41,-3.11 -0.95,-0.71 -1.33,-1.26 -4,-0.1"
               class="cls-1" />
            <path
               style="fill:none;stroke:#000000;stroke-width:0.75px;stroke-miterlimit:10"
               inkscape:connector-curvature="0"
               id="path1093"
               transform="translate(-38.05,-95.92)"
               d="m 79.55,112.07 a 18.93,18.93 0 0 0 1.28,-1.74 1.63,1.63 0 0 0 -1.85,-1 c -1.46,0.19 0.02,2.52 0.57,2.74 z"
               class="cls-1" />
            <path
               style="fill:none;stroke:#000000;stroke-width:0.75px;stroke-miterlimit:10"
               inkscape:connector-curvature="0"
               id="path1095"
               transform="translate(-38.05,-95.92)"
               d="m 102,108.54 1.65,1.38 c 0,0 1.11,-1.43 0.14,-2.11 -0.97,-0.68 -1.25,0.11 -1.79,0.73 z"
               class="cls-1" />
            <path
               style="fill:none;stroke:#000000;stroke-width:0.75px;stroke-miterlimit:10"
               inkscape:connector-curvature="0"
               id="path1097"
               transform="translate(-38.05,-95.92)"
               d="M 82.45,114.23"
               class="cls-1" />
            <path
               style="fill:none;stroke:#000000;stroke-width:0.75px;stroke-miterlimit:10"
               inkscape:connector-curvature="0"
               id="path1099"
               transform="translate(-38.05,-95.92)"
               d="m 85.46,114 a 3.27,3.27 0 0 1 2.85,-1.3"
               class="cls-1" />
            <path
               style="fill:none;stroke:#000000;stroke-width:0.75px;stroke-miterlimit:10"
               inkscape:connector-curvature="0"
               id="path1101"
               transform="translate(-38.05,-95.92)"
               d="m 94.14,112.69 a 3.27,3.27 0 0 1 3.66,0.65"
               class="cls-1" />
            <path
               style="fill:none;stroke:#000000;stroke-width:0.75px;stroke-miterlimit:10"
               inkscape:connector-curvature="0"
               id="path1103"
               transform="translate(-38.05,-95.92)"
               d="M 88.09,114.53"
               class="cls-1" />
            <polyline
               style="fill:none;stroke:#000000;stroke-width:0.75px;stroke-miterlimit:10"
               id="polyline1105"
               points="53.58 24.02 53.58 25.83 53.58 26.35"
               class="cls-1" />
            <path
               style="fill:none;stroke:#000000;stroke-width:0.75px;stroke-miterlimit:10"
               inkscape:connector-curvature="0"
               id="path1107"
               transform="translate(-38.05,-95.92)"
               d="M 103.52,117.49"
               class="cls-1" />
            <path
               style="fill:none;stroke:#000000;stroke-width:0.75px;stroke-miterlimit:10"
               inkscape:connector-curvature="0"
               id="path1109"
               transform="translate(-38.05,-95.92)"
               d="m 81.59,125.32 c 0.12,0.69 -1,2.43 -1,2.43 a 29.58,29.58 0 0 0 -13.26,4 c -7.3,4.05 -12.78,5.42 -25.14,21.68 a 2.81,2.81 0 0 0 -3.25,0.85 1.63,1.63 0 0 0 0.54,2.66 c 0,0.05 -1.76,2 -0.63,3.61 1.13,1.61 2.75,-0.55 2.75,-0.55 0,0 -0.94,2.08 0.42,2.84 1.36,0.76 2.35,-1.45 2.35,-1.45 0,0 1.08,1.41 2.08,1.36 1,-0.05 1.6,-0.8 2,-1.85 a 3.44,3.44 0 0 0 -0.43,-2.49 39.43,39.43 0 0 0 5.42,-3"
               class="cls-1" />
            <path
               style="fill:none;stroke:#000000;stroke-width:0.75px;stroke-miterlimit:10"
               inkscape:connector-curvature="0"
               id="path1111"
               transform="translate(-38.05,-95.92)"
               d="M 52.48,156.33 A 10.78,10.78 0 0 0 58.79,152.56 12.66,12.66 0 0 0 60,150.8"
               class="cls-1" />
            <path
               style="fill:none;stroke:#000000;stroke-width:0.75px;stroke-miterlimit:10"
               inkscape:connector-curvature="0"
               id="path1113"
               transform="translate(-38.05,-95.92)"
               d="m 67.16,144.33 c 0,0 -3.27,6 -6.77,7.76 a 4.24,4.24 0 0 1 -1.6,0.47"
               class="cls-1" />
            <path
               style="fill:none;stroke:#000000;stroke-width:0.75px;stroke-miterlimit:10"
               inkscape:connector-curvature="0"
               id="path1115"
               transform="translate(-38.05,-95.92)"
               d="m 56,218.1 a 77.72,77.72 0 0 1 -1.51,-13.56 36.53,36.53 0 0 1 1.62,-10.3 c 0,0 2.1,-7.19 1.34,-9.65 A 11.32,11.32 0 0 1 57,180 131.36,131.36 0 0 1 60.18,166.45 c 0,0 -2.18,-7.45 0.21,-14.36"
               class="cls-1" />
            <path
               style="fill:none;stroke:#000000;stroke-width:0.75px;stroke-miterlimit:10"
               inkscape:connector-curvature="0"
               id="path1117"
               transform="translate(-38.05,-95.92)"
               d="M 56.22,218.17"
               class="cls-1" />
            <path
               style="fill:none;stroke:#000000;stroke-width:0.75px;stroke-miterlimit:10"
               inkscape:connector-curvature="0"
               id="path1119"
               transform="translate(-38.05,-95.92)"
               d="M 62,225.08"
               class="cls-1" />
            <path
               style="fill:none;stroke:#000000;stroke-width:0.75px;stroke-miterlimit:10"
               inkscape:connector-curvature="0"
               id="path1121"
               transform="translate(-38.05,-95.92)"
               d="m 123.14,222 c 0,0 1.27,-2.14 2.17,-8.93 0,0 2,-16.36 -3.53,-22 a 41.85,41.85 0 0 0 4,-9.56"
               class="cls-1" />
            <path
               style="fill:none;stroke:#000000;stroke-width:0.75px;stroke-miterlimit:10"
               inkscape:connector-curvature="0"
               id="path1123"
               transform="translate(-38.05,-95.92)"
               d="m 66.1,219.54 c 2.25,-1.67 7,-8 7,-8 l 3,-4 c 0,0 1.67,-2.6 6.26,-5.49 a 56.57,56.57 0 0 0 6.25,-4.34 6.38,6.38 0 0 1 7,0 48.73,48.73 0 0 1 7,5.93 8.26,8.26 0 0 1 2.53,4.88 c 0.58,3.32 3.25,11.42 7.84,13.95"
               class="cls-1" />
            <path
               style="fill:none;stroke:#000000;stroke-width:0.75px;stroke-miterlimit:10"
               inkscape:connector-curvature="0"
               id="path1125"
               transform="translate(-38.05,-95.92)"
               d="m 105.21,123 1.37,4 c 0,0 20.25,3.57 23.61,10.46 0,0 10.27,4.32 15.6,11.57 0,0 3.4,0.36 2.9,1.9 a 1.62,1.62 0 0 1 -1.94,1.07 l -0.32,-0.06"
               class="cls-1" />
            <path
               style="fill:none;stroke:#000000;stroke-width:0.75px;stroke-miterlimit:10"
               inkscape:connector-curvature="0"
               id="path1127"
               transform="translate(-38.05,-95.92)"
               d="m 146.75,152 -11.08,12.68 c 0,0 -0.4,4.33 4.46,2.11 l 6.1,-6"
               class="cls-1" />
            <path
               style="fill:none;stroke:#000000;stroke-width:0.75px;stroke-miterlimit:10"
               inkscape:connector-curvature="0"
               id="path1129"
               transform="translate(-38.05,-95.92)"
               d="M 139.65,166.88"
               class="cls-1" />
            <path
               style="fill:none;stroke:#000000;stroke-width:0.75px;stroke-miterlimit:10"
               inkscape:connector-curvature="0"
               id="path1131"
               transform="translate(-38.05,-95.92)"
               d="m 149.49,156.17 c 0,0 0,-1.95 1.58,-1.9 1.58,0.05 1.73,0.28 2.08,1.36 a 1.38,1.38 0 0 1 -0.67,1.63 1.43,1.43 0 0 1 -0.36,1.49 2.4,2.4 0 0 1 -1.49,0.62 c 0,0 0.14,1.14 -0.46,1.55 -0.6,0.41 -2.9,0.67 -3.79,0 -0.89,-0.67 -0.22,-2.09 -0.22,-2.09 0,0 0.22,-0.8 1.44,-0.51 0,0 -0.49,-1.31 0.4,-1.8 a 2.37,2.37 0 0 1 1.49,-0.35 z"
               class="cls-1" />
            <path
               style="fill:none;stroke:#000000;stroke-width:0.75px;stroke-miterlimit:10"
               inkscape:connector-curvature="0"
               id="path1133"
               transform="translate(-38.05,-95.92)"
               d="m 148.33,149.86 2.72,-2.86 -0.07,-1 7.07,-6.72 2.15,-2 a 0.63,0.63 0 0 1 1.05,0.13 c 0.47,0.75 3.75,4 3.75,4 0,0 0.33,0.31 -0.49,0.94 -0.82,0.63 -7.61,7.9 -7.61,7.9 l -1.25,0.31 -3.52,3.86"
               class="cls-1" />
            <path
               style="fill:none;stroke:#000000;stroke-width:0.75px;stroke-miterlimit:10"
               inkscape:connector-curvature="0"
               id="path1135"
               transform="translate(-38.05,-95.92)"
               d="m 158.05,139.24 c -1.66,-1.08 -0.34,-1.56 -0.34,-1.56 0,0 0.67,-0.41 1.52,0.44"
               class="cls-1" />
            <path
               style="fill:none;stroke:#000000;stroke-width:0.75px;stroke-miterlimit:10"
               inkscape:connector-curvature="0"
               id="path1137"
               transform="translate(-38.05,-95.92)"
               d="m 155.67,141.5 c -1.25,-0.72 -0.54,-1.55 -0.54,-1.55 0,0 0.6,-0.92 1.57,0.58"
               class="cls-1" />
            <path
               style="fill:none;stroke:#000000;stroke-width:0.75px;stroke-miterlimit:10"
               inkscape:connector-curvature="0"
               id="path1139"
               transform="translate(-38.05,-95.92)"
               d="m 153.68,143.39 c -1.35,-0.49 -0.85,-1.46 -0.85,-1.46 0,0 0.68,-1.34 1.8,0.56"
               class="cls-1" />
            <path
               style="fill:none;stroke:#000000;stroke-width:0.75px;stroke-miterlimit:10"
               inkscape:connector-curvature="0"
               id="path1141"
               transform="translate(-38.05,-95.92)"
               d="m 151.81,145.17 c -1.36,-0.27 -0.68,-1.26 -0.68,-1.26 0,0 0.48,-1 1.65,0.34"
               class="cls-1" />
            <path
               style="fill:none;stroke:#000000;stroke-width:0.75px;stroke-miterlimit:10"
               inkscape:connector-curvature="0"
               id="path1143"
               transform="translate(-38.05,-95.92)"
               d="m 164.87,142 c 1.2,1.13 0.6,1.64 0.6,1.64 0,0 -0.61,0.61 -1.61,-0.7"
               class="cls-1" />
            <path
               style="fill:none;stroke:#000000;stroke-width:0.75px;stroke-miterlimit:10"
               inkscape:connector-curvature="0"
               id="path1145"
               transform="translate(-38.05,-95.92)"
               d="m 162.63,144.18 c 1,1 0.64,1.39 0.64,1.39 0,0 -0.24,0.83 -1.73,-0.26"
               class="cls-1" />
            <path
               style="fill:none;stroke:#000000;stroke-width:0.75px;stroke-miterlimit:10"
               inkscape:connector-curvature="0"
               id="path1147"
               transform="translate(-38.05,-95.92)"
               d="m 160.6,146.3 c 0,0 1.48,0.63 0.77,1.7 -0.71,1.07 -1.75,-0.67 -1.75,-0.67"
               class="cls-1" />
            <path
               style="fill:none;stroke:#000000;stroke-width:0.75px;stroke-miterlimit:10"
               inkscape:connector-curvature="0"
               id="path1149"
               transform="translate(-38.05,-95.92)"
               d="m 158.58,148.43 c 0,0 1.34,0.65 0.82,1.77 -0.52,1.12 -1.75,-0.78 -1.75,-0.78"
               class="cls-1" />
            <ellipse
               style="fill:none;stroke:#000000;stroke-width:0.75px;stroke-miterlimit:10"
               id="ellipse1151"
               ry="0.68000001"
               rx="0.61000001"
               cy="44.080002"
               cx="121.39"
               class="cls-1" />
            <ellipse
               style="fill:none;stroke:#000000;stroke-width:0.75px;stroke-miterlimit:10"
               id="ellipse1153"
               ry="0.68000001"
               rx="0.61000001"
               cy="45.93"
               cx="119.56"
               class="cls-1" />
            <ellipse
               style="fill:none;stroke:#000000;stroke-width:0.75px;stroke-miterlimit:10"
               id="ellipse1155"
               ry="0.68000001"
               rx="0.61000001"
               cy="45.59"
               cx="124.1"
               class="cls-1" />
            <ellipse
               style="fill:none;stroke:#000000;stroke-width:0.75px;stroke-miterlimit:10"
               id="ellipse1157"
               ry="0.68000001"
               rx="0.61000001"
               cy="48.330002"
               cx="121.85"
               class="cls-1" />
            <ellipse
               style="fill:none;stroke:#000000;stroke-width:0.75px;stroke-miterlimit:10"
               id="ellipse1159"
               ry="0.68000001"
               rx="0.61000001"
               cy="47.849998"
               cx="117.48"
               class="cls-1" />
            <ellipse
               style="fill:none;stroke:#000000;stroke-width:0.75px;stroke-miterlimit:10"
               id="ellipse1161"
               ry="0.68000001"
               rx="0.61000001"
               cy="50.02"
               cx="119.74"
               class="cls-1" />
            <ellipse
               style="fill:none;stroke:#000000;stroke-width:0.75px;stroke-miterlimit:10"
               id="ellipse1163"
               ry="0.68000001"
               rx="0.61000001"
               cy="52.16"
               cx="117.97"
               class="cls-1" />
            <ellipse
               style="fill:none;stroke:#000000;stroke-width:0.75px;stroke-miterlimit:10"
               id="ellipse1165"
               ry="0.68000001"
               rx="0.61000001"
               cy="49.790001"
               cx="115.37"
               class="cls-1" />
            <path
               style="fill:none;stroke:#000000;stroke-width:0.75px;stroke-miterlimit:10"
               inkscape:connector-curvature="0"
               id="path1167"
               transform="translate(-38.05,-95.92)"
               d="m 150.74,147.32 a 10.33,10.33 0 0 1 3.73,4.5"
               class="cls-1" />
            <path
               style="fill:none;stroke:#000000;stroke-width:0.75px;stroke-miterlimit:10"
               inkscape:connector-curvature="0"
               id="path1169"
               transform="translate(-38.05,-95.92)"
               d="m 149.67,148.35 a 19.44,19.44 0 0 1 4,4.37"
               class="cls-1" />
            <path
               style="fill:none;stroke:#000000;stroke-width:0.75px;stroke-miterlimit:10"
               inkscape:connector-curvature="0"
               id="path1171"
               transform="translate(-38.05,-95.92)"
               d="m 148.74,150.53 c 0,0 -0.17,-0.74 3.65,3.58"
               class="cls-1" />
            <path
               style="fill:none;stroke:#000000;stroke-width:0.75px;stroke-miterlimit:10"
               inkscape:connector-curvature="0"
               id="path1173"
               transform="translate(-38.05,-95.92)"
               d="m 146.64,152.11 a 7.67,7.67 0 0 1 3.19,2.83"
               class="cls-1" />
            <path
               style="fill:none;stroke:#000000;stroke-width:0.75px;stroke-miterlimit:10"
               inkscape:connector-curvature="0"
               id="path1175-7"
               transform="translate(-38.05,-95.92)"
               d="m 145.3,153.52 c 0,0 2.6,1.59 3.09,2.82"
               class="cls-1" />
            <path
               style="fill:none;stroke:#000000;stroke-width:0.75px;stroke-miterlimit:10"
               inkscape:connector-curvature="0"
               id="path1177-8"
               transform="translate(-38.05,-95.92)"
               d="m 143.69,155.48 a 8.13,8.13 0 0 1 3.91,2.84"
               class="cls-1" />
            <path
               style="fill:none;stroke:#000000;stroke-width:0.75px;stroke-miterlimit:10"
               inkscape:connector-curvature="0"
               id="path1179-6"
               transform="translate(-38.05,-95.92)"
               d="m 142.31,157.06 a 11,11 0 0 1 3.64,2.47"
               class="cls-1" />
            <path
               style="fill:none;stroke:#000000;stroke-width:0.75px;stroke-miterlimit:10"
               inkscape:connector-curvature="0"
               id="path1181"
               transform="translate(-38.05,-95.92)"
               d="m 141.2,158.19 a 10.4,10.4 0 0 1 4.54,3.07"
               class="cls-1" />
            <path
               style="fill:none;stroke:#000000;stroke-width:0.75px;stroke-miterlimit:10"
               inkscape:connector-curvature="0"
               id="path1183"
               transform="translate(-38.05,-95.92)"
               d="M 140.44,159.19 A 15,15 0 0 1 145,162"
               class="cls-1" />
            <path
               style="fill:none;stroke:#000000;stroke-width:0.75px;stroke-miterlimit:10"
               inkscape:connector-curvature="0"
               id="path1185"
               transform="translate(-38.05,-95.92)"
               d="m 139.74,160 c 0,0 3.22,1.49 4.17,3.06"
               class="cls-1" />
            <path
               style="fill:none;stroke:#000000;stroke-width:0.75px;stroke-miterlimit:10"
               inkscape:connector-curvature="0"
               id="path1187"
               transform="translate(-38.05,-95.92)"
               d="m 138.91,161 a 13.57,13.57 0 0 1 4.15,2.94"
               class="cls-1" />
            <path
               style="fill:none;stroke:#000000;stroke-width:0.75px;stroke-miterlimit:10"
               inkscape:connector-curvature="0"
               id="path1189"
               transform="translate(-38.05,-95.92)"
               d="m 138,162 c 0,0 3,1.31 4,3"
               class="cls-1" />
            <path
               style="fill:none;stroke:#000000;stroke-width:0.75px;stroke-miterlimit:10"
               inkscape:connector-curvature="0"
               id="path1191"
               transform="translate(-38.05,-95.92)"
               d="m 140.88,166 c -1,-1.53 -4,-2.8 -4,-2.8"
               class="cls-1" />
            <path
               style="fill:none;stroke:#000000;stroke-width:0.75px;stroke-miterlimit:10"
               inkscape:connector-curvature="0"
               id="path1193"
               transform="translate(-38.05,-95.92)"
               d="m 135.85,164.45 a 22.11,22.11 0 0 1 3.8,2.43"
               class="cls-1" />
            <path
               style="fill:none;stroke:#000000;stroke-width:0.75px;stroke-miterlimit:10"
               inkscape:connector-curvature="0"
               id="path1195"
               transform="translate(-38.05,-95.92)"
               d="M 151.41,147.82"
               class="cls-1" />
            <path
               style="fill:none;stroke:#000000;stroke-width:0.75px;stroke-miterlimit:10"
               inkscape:connector-curvature="0"
               id="path1197"
               transform="translate(-38.05,-95.92)"
               d="m 126.18,173.73 3.92,3.16 c 0,0 -2.11,3.33 -4.7,1.5 -2.59,-1.83 0.78,-4.66 0.78,-4.66 z"
               class="cls-1" />
            <path
               style="fill:none;stroke:#000000;stroke-width:0.75px;stroke-miterlimit:10"
               inkscape:connector-curvature="0"
               id="path1199"
               transform="translate(-38.05,-95.92)"
               d="m 130.93,170.1 2.93,2.62 a 0.53,0.53 0 0 0 0.54,-0.13 l 1.09,-1.17 c 0,0 0.32,-0.28 -0.13,-0.73 -0.45,-0.45 -2.82,-2.67 -2.82,-2.67 a 0.44,0.44 0 0 0 -0.58,0.09 c -0.21,0.31 -1,1.3 -1,1.3 a 0.46,0.46 0 0 0 -0.03,0.69 z"
               class="cls-1" />
            <circle
               style="fill:none;stroke:#000000;stroke-width:0.75px;stroke-miterlimit:10"
               id="circle1201"
               r="1.04"
               cy="82.989998"
               cx="93.75"
               class="cls-1" />
            <circle
               style="fill:none;stroke:#000000;stroke-width:0.75px;stroke-miterlimit:10"
               id="circle1203"
               r="1.04"
               cy="84.019997"
               cx="91.199997"
               class="cls-1" />
            <path
               style="fill:none;stroke:#000000;stroke-width:0.75px;stroke-miterlimit:10"
               inkscape:connector-curvature="0"
               id="path1205"
               transform="translate(-38.05,-95.92)"
               d="m 137,163.11 c 0,0 -1.8,0.49 -1.89,-1 -0.09,-1.3 0.11,-1.93 0.06,-3.12 0,-0.72 -0.06,-1.45 -0.44,-1.62 -0.53,-0.23 -1.45,0.71 -1.9,1.29 -0.77,1 -0.67,1.54 -1.65,3.7 a 6.75,6.75 0 0 1 -0.86,1.59 c -1,1.15 -2.43,1.11 -3.62,1.39 -2.93,0.68 -5.27,3.45 -6.14,5.95 a 8,8 0 0 0 0,5.5 8.21,8.21 0 0 0 4.31,4.43 c 0,0 8.12,3.74 10.68,-1.95 2.56,-5.69 5.45,-6.17 5.45,-6.17 0,0 4.33,-0.76 5.85,-3.69 1.52,-2.93 -0.35,-2.53 -0.35,-2.53 l -3.43,0.79 c 0,0 -3.57,0.88 -2.36,-1.45"
               class="cls-1" />
            <path
               style="fill:none;stroke:#000000;stroke-width:0.75px;stroke-miterlimit:10"
               inkscape:connector-curvature="0"
               id="path1207"
               transform="translate(-38.05,-95.92)"
               d="M 123.48,167"
               class="cls-1" />
            <path
               style="fill:none;stroke:#000000;stroke-width:0.75px;stroke-miterlimit:10"
               inkscape:connector-curvature="0"
               id="path1209"
               transform="translate(-38.05,-95.92)"
               d="m 117.61,145.67 a 11.07,11.07 0 0 0 7.78,2.68 38.07,38.07 0 0 0 14.91,9 c 0,0 0,0.58 0.76,1.19"
               class="cls-1" />
            <path
               style="fill:none;stroke:#000000;stroke-width:0.75px;stroke-miterlimit:10"
               inkscape:connector-curvature="0"
               id="path1211"
               transform="translate(-38.05,-95.92)"
               d="m 122.71,167.78 a 39.78,39.78 0 0 0 1.6,-19.43"
               class="cls-1" />
            <path
               style="fill:none;stroke:#000000;stroke-width:0.75px;stroke-miterlimit:10"
               inkscape:connector-curvature="0"
               id="path1213"
               transform="translate(-38.05,-95.92)"
               d="m 68.11,153.47 c 0,0 6.11,5.42 9.31,5.42 a 10.56,10.56 0 0 0 5.88,-2.17"
               class="cls-1" />
            <path
               style="fill:none;stroke:#000000;stroke-width:0.75px;stroke-miterlimit:10"
               inkscape:connector-curvature="0"
               id="path1215"
               transform="translate(-38.05,-95.92)"
               d="m 100.52,154.45 c 0,0 2.2,5.31 6.9,5 4.7,-0.31 10.19,-5.93 10.19,-5.93"
               class="cls-1" />
            <path
               style="fill:none;stroke:#000000;stroke-width:0.75px;stroke-miterlimit:10"
               inkscape:connector-curvature="0"
               id="path1217"
               transform="translate(-38.05,-95.92)"
               d="m 69,154.2 c 0,0 5.34,-13.6 21.57,-11.61 16.23,1.99 16.15,5.06 24.38,13.23"
               class="cls-1" />
            <path
               style="fill:none;stroke:#000000;stroke-width:0.75px;stroke-miterlimit:10"
               inkscape:connector-curvature="0"
               id="path1219"
               transform="translate(-38.05,-95.92)"
               d="m 70.31,155.26 c 0,0 -4.81,26.51 11.29,29.4 16.1,2.89 20.58,-0.43 20.58,-0.43 0,0 6.29,-1.7 8.46,-10.5 2.17,-8.8 2,-5.23 2.54,-16.67"
               class="cls-1" />
            <path
               style="fill:none;stroke:#000000;stroke-width:0.75px;stroke-miterlimit:10"
               inkscape:connector-curvature="0"
               id="path1221"
               transform="translate(-38.05,-95.92)"
               d="m 89.89,174.07 a 5,5 0 0 0 0.49,2.85 2.43,2.43 0 0 0 0.7,0.77 2,2 0 0 1 -0.54,2.67"
               class="cls-1" />
            <path
               style="fill:none;stroke:#000000;stroke-width:0.75px;stroke-miterlimit:10"
               inkscape:connector-curvature="0"
               id="path1223"
               transform="translate(-38.05,-95.92)"
               d="m 91.58,182.26 a 0.5,0.5 0 0 1 -0.68,-0.34 c -0.19,-0.54 0.08,-0.81 -0.43,-1.69 a 2.42,2.42 0 0 1 -0.41,-2.34 c 0.32,-1 0.36,-0.9 0.36,-0.9"
               class="cls-1" />
            <path
               style="fill:none;stroke:#000000;stroke-width:0.75px;stroke-miterlimit:10"
               inkscape:connector-curvature="0"
               id="path1225"
               transform="translate(-38.05,-95.92)"
               d="M 75.29,158.36"
               class="cls-1" />
            <path
               style="fill:none;stroke:#000000;stroke-width:0.75px;stroke-miterlimit:10"
               inkscape:connector-curvature="0"
               id="path1227"
               transform="translate(-38.05,-95.92)"
               d="M 154.23,205.12"
               class="cls-1" />
            <path
               style="fill:none;stroke:#000000;stroke-width:0.75px;stroke-miterlimit:10"
               inkscape:connector-curvature="0"
               id="path1229"
               transform="translate(-38.05,-95.92)"
               d="m 75.22,158.36 a 3.27,3.27 0 0 1 3.67,0.39"
               class="cls-1" />
            <path
               style="fill:none;stroke:#000000;stroke-width:0.75px;stroke-miterlimit:10"
               inkscape:connector-curvature="0"
               id="path1231"
               transform="translate(-38.05,-95.92)"
               d="m 104.85,159 c 0,0 1.67,-1.88 3.78,0.2"
               class="cls-1" />
            <path
               style="fill:none;stroke:#000000;stroke-width:0.75px;stroke-miterlimit:10"
               inkscape:connector-curvature="0"
               id="path1233"
               transform="translate(-38.05,-95.92)"
               d="m 40.46,155 a 1.45,1.45 0 0 1 -1,-0.19"
               class="cls-1" />
            <path
               style="fill:none;stroke:#000000;stroke-width:0.75px;stroke-miterlimit:10"
               inkscape:connector-curvature="0"
               id="path1235"
               transform="translate(-38.05,-95.92)"
               d="m 40.69,159.32 a 1.64,1.64 0 0 1 -1.11,0.77"
               class="cls-1" />
            <path
               style="fill:none;stroke:#000000;stroke-width:0.75px;stroke-miterlimit:10"
               inkscape:connector-curvature="0"
               id="path1237"
               transform="translate(-38.05,-95.92)"
               d="m 42.73,161.08 a 0.8,0.8 0 0 1 0.11,1.11"
               class="cls-1" />
            <path
               style="fill:none;stroke:#000000;stroke-width:0.75px;stroke-miterlimit:10"
               inkscape:connector-curvature="0"
               id="path1239"
               transform="translate(-38.05,-95.92)"
               d="m 46.43,161.15 a 0.87,0.87 0 0 1 0.34,0.9"
               class="cls-1" />
            <path
               style="fill:none;stroke:#000000;stroke-width:0.75px;stroke-miterlimit:10"
               inkscape:connector-curvature="0"
               id="path1241"
               transform="translate(-38.05,-95.92)"
               d="m 147.31,150.55 a 0.87,0.87 0 0 1 0.85,0.08"
               class="cls-1" />
            <path
               style="fill:none;stroke:#000000;stroke-width:0.75px;stroke-miterlimit:10"
               inkscape:connector-curvature="0"
               id="path1243"
               transform="translate(-38.05,-95.92)"
               d="m 151.54,155.57 c 0,0 -0.34,-0.08 -0.58,-0.63"
               class="cls-1" />
            <path
               style="fill:none;stroke:#000000;stroke-width:0.75px;stroke-miterlimit:10"
               inkscape:connector-curvature="0"
               id="path1245"
               transform="translate(-38.05,-95.92)"
               d="m 149.46,157.3 c 0,0 -0.64,0 -0.72,-0.5"
               class="cls-1" />
            <path
               style="fill:none;stroke:#000000;stroke-width:0.75px;stroke-miterlimit:10"
               inkscape:connector-curvature="0"
               id="path1247"
               transform="translate(-38.05,-95.92)"
               d="m 147.67,159.53 c 0,0 -0.7,0.18 -0.92,-0.34"
               class="cls-1" />
          </g>
        </g>
      </g>
    </g>
  </g>
</svg>
