<?xml version="1.0" encoding="UTF-8" standalone="no"?>
<svg
   xmlns:dc="http://purl.org/dc/elements/1.1/"
   xmlns:cc="http://creativecommons.org/ns#"
   xmlns:rdf="http://www.w3.org/1999/02/22-rdf-syntax-ns#"
   xmlns:svg="http://www.w3.org/2000/svg"
   xmlns="http://www.w3.org/2000/svg"
   xmlns:sodipodi="http://sodipodi.sourceforge.net/DTD/sodipodi-0.dtd"
   xmlns:inkscape="http://www.inkscape.org/namespaces/inkscape"
   viewBox="0 0 127.94 134.23"
   version="1.1"
   id="svg1333"
   sodipodi:docname="Fat Cat.svg"
   inkscape:version="0.92.4 (5da689c313, 2019-01-14)">
  <metadata
     id="metadata1337">
    <rdf:RDF>
      <cc:Work
         rdf:about="">
        <dc:format>image/svg+xml</dc:format>
        <dc:type
           rdf:resource="http://purl.org/dc/dcmitype/StillImage" />
      </cc:Work>
    </rdf:RDF>
  </metadata>
  <sodipodi:namedview
     pagecolor="#ffffff"
     bordercolor="#666666"
     borderopacity="1"
     objecttolerance="10"
     gridtolerance="10"
     guidetolerance="10"
     inkscape:pageopacity="0"
     inkscape:pageshadow="2"
     inkscape:window-width="1920"
     inkscape:window-height="1017"
     id="namedview1335"
     showgrid="false"
     inkscape:zoom="6.3175149"
     inkscape:cx="63.970001"
     inkscape:cy="67.114998"
     inkscape:window-x="-8"
     inkscape:window-y="-8"
     inkscape:window-maximized="1"
     inkscape:current-layer="layer2" />
  <defs
     id="defs1079">
    <style
       id="style1077">.cls-1{fill:none;}.cls-1,.cls-2{stroke:#000;stroke-miterlimit:10;stroke-width:0.75px;}.cls-2{fill:#999;}</style>
  </defs>
  <title
     id="title1081">Fat Cat</title>
  <g
     inkscape:groupmode="layer"
     id="layer1"
     inkscape:label="Fill"
     style="display:inline">
    <g
       id="Fill">
      <path
         class="cls-2"
         d="m 66.49,219.58 1.16,5.77 -5.37,0.87 -0.35,-1.14 -0.5,0.1 c -12.23,2.1 -12.26,-3.38 -12.26,-3.38 0,0 -0.78,-2.52 6.35,-2.38 l 0.5,-1.32 a 18.27,18.27 0 0 0 10.47,1.48 z"
         transform="translate(-38.05,-95.92)"
         id="path1250"
         inkscape:connector-curvature="0"
         style="fill:#999999;stroke:#000000;stroke-width:0.75px;stroke-miterlimit:10" />
      <path
         class="cls-2"
         d="m 123.14,222 c 0,0 0.76,1.36 1.58,1.36 0.82,0 6.48,0.84 6,3.47 -0.48,2.63 -5,4.23 -12.57,1.44 l -0.82,1 -4.55,-0.27 0.16,-6.57 z"
         transform="translate(-38.05,-95.92)"
         id="path1252"
         inkscape:connector-curvature="0"
         style="fill:#999999;stroke:#000000;stroke-width:0.75px;stroke-miterlimit:10" />
      <path
         class="cls-2"
         d="m 45.89,155.26 c 1.09,1.38 3.87,2.33 3.87,2.33 l 0.6,-0.31 c 0,0 -4.78,-2.41 -4.47,-2.02 z"
         transform="translate(-38.05,-95.92)"
         id="path1254"
         inkscape:connector-curvature="0"
         style="fill:#999999;stroke:#000000;stroke-width:0.75px;stroke-miterlimit:10" />
      <path
         class="cls-2"
         d="m 57.3,154 -1,0.77 c 0,0 -5.23,-1.92 -6,-3.18 -0.77,-1.26 7,2.41 7,2.41 z"
         transform="translate(-38.05,-95.92)"
         id="path1256"
         inkscape:connector-curvature="0"
         style="fill:#999999;stroke:#000000;stroke-width:0.75px;stroke-miterlimit:10" />
      <path
         class="cls-2"
         d="m 48.12,146.15 0.42,-0.47 5.21,3 c 0,0 2.56,1.95 -5.63,-2.53 z"
         transform="translate(-38.05,-95.92)"
         id="path1258"
         inkscape:connector-curvature="0"
         style="fill:#999999;stroke:#000000;stroke-width:0.75px;stroke-miterlimit:10" />
      <path
         class="cls-2"
         d="m 52.62,141.46 -0.56,0.53 6.73,3.11 c 0,0 2.71,-0.6 -6.17,-3.64 z"
         transform="translate(-38.05,-95.92)"
         id="path1260"
         inkscape:connector-curvature="0"
         style="fill:#999999;stroke:#000000;stroke-width:0.75px;stroke-miterlimit:10" />
      <path
         class="cls-2"
         d="m 63.37,139.07 c 3.78,0.83 7.54,6.48 5,2.18 -2.54,-4.3 -9.38,-3.7 -9.38,-3.7 0,0 -1.85,0.14 4.38,1.52 z"
         transform="translate(-38.05,-95.92)"
         id="path1262"
         inkscape:connector-curvature="0"
         style="fill:#999999;stroke:#000000;stroke-width:0.75px;stroke-miterlimit:10" />
      <path
         class="cls-2"
         d="m 60.39,152.09 a 3.14,3.14 0 0 0 1.28,-0.83 c 0.52,-0.59 5.88,4 5.88,4 0,0 1.45,1.88 -7.16,-3.17 z"
         transform="translate(-38.05,-95.92)"
         id="path1264"
         inkscape:connector-curvature="0"
         style="fill:#999999;stroke:#000000;stroke-width:0.75px;stroke-miterlimit:10" />
      <path
         class="cls-2"
         d="m 59.3,158.89 v 1.36 c 0,0 3.7,4.08 6.4,4.52 2.7,0.44 0.21,-0.99 -6.4,-5.88 z"
         transform="translate(-38.05,-95.92)"
         id="path1266"
         inkscape:connector-curvature="0"
         style="fill:#999999;stroke:#000000;stroke-width:0.75px;stroke-miterlimit:10" />
      <path
         class="cls-2"
         d="m 59.79,167.94 -0.26,1 c 0,0 6.47,6.06 9.75,6.06 3.28,0 -4.89,-2.43 -9.49,-7.06 z"
         transform="translate(-38.05,-95.92)"
         id="path1268"
         inkscape:connector-curvature="0"
         style="fill:#999999;stroke:#000000;stroke-width:0.75px;stroke-miterlimit:10" />
      <path
         class="cls-2"
         d="M 58.43,173.24 58,175.31 c 0,0 13.29,14.18 21.75,14.23 8.46,0.05 4.23,-0.35 -0.44,-1.16 -4.67,-0.81 -12.23,-6.96 -20.88,-15.14 z"
         transform="translate(-38.05,-95.92)"
         id="path1270"
         inkscape:connector-curvature="0"
         style="fill:#999999;stroke:#000000;stroke-width:0.75px;stroke-miterlimit:10" />
      <path
         class="cls-2"
         d="M 63.72,202.88"
         transform="translate(-38.05,-95.92)"
         id="path1272"
         inkscape:connector-curvature="0"
         style="fill:#999999;stroke:#000000;stroke-width:0.75px;stroke-miterlimit:10" />
      <path
         class="cls-2"
         d="M 57.52,187.69 57.64,186 c 0,0 4.71,7.84 10.53,9.65 5.82,1.81 -2.31,4.61 -10.65,-7.96 z"
         transform="translate(-38.05,-95.92)"
         id="path1274"
         inkscape:connector-curvature="0"
         style="fill:#999999;stroke:#000000;stroke-width:0.75px;stroke-miterlimit:10" />
      <path
         class="cls-2"
         d="m 55.08,198.58 -0.28,1.88 c 0,0 3.92,6.09 8.92,5.31 5,-0.78 -5.82,0.23 -8.64,-7.19 z"
         transform="translate(-38.05,-95.92)"
         id="path1276"
         inkscape:connector-curvature="0"
         style="fill:#999999;stroke:#000000;stroke-width:0.75px;stroke-miterlimit:10" />
      <path
         class="cls-2"
         d="m 67.44,204.05 a 45.55,45.55 0 0 0 14.69,-3.66 c 7.05,-3.26 -3.9,5.36 -14.69,3.66 z"
         transform="translate(-38.05,-95.92)"
         id="path1278"
         inkscape:connector-curvature="0"
         style="fill:#999999;stroke:#000000;stroke-width:0.75px;stroke-miterlimit:10" />
      <path
         class="cls-2"
         d="m 76.19,207.39 -2.12,2.82 a 14.92,14.92 0 0 1 -8.72,1.31 c -5.24,-0.69 8.03,-0.7 10.84,-4.13 z"
         transform="translate(-38.05,-95.92)"
         id="path1280"
         inkscape:connector-curvature="0"
         style="fill:#999999;stroke:#000000;stroke-width:0.75px;stroke-miterlimit:10" />
      <path
         class="cls-2"
         d="M 79.14,193.3"
         transform="translate(-38.05,-95.92)"
         id="path1282"
         inkscape:connector-curvature="0"
         style="fill:#999999;stroke:#000000;stroke-width:0.75px;stroke-miterlimit:10" />
      <path
         class="cls-2"
         d="m 89.53,197.21 a 5.9,5.9 0 0 0 -1.94,1.29 c -1.31,1.13 -10.29,-5.61 -8.72,-5 1.57,0.61 4.02,3.43 10.66,3.71 z"
         transform="translate(-38.05,-95.92)"
         id="path1284"
         inkscape:connector-curvature="0"
         style="fill:#999999;stroke:#000000;stroke-width:0.75px;stroke-miterlimit:10" />
      <path
         class="cls-2"
         d="m 69.27,130.75 -2,1 c 0,0 2.51,0.47 7.66,3.94 5.15,3.47 7.4,7.32 6.32,5 -1.08,-2.32 -2.25,-4.13 -11.98,-9.94 z"
         transform="translate(-38.05,-95.92)"
         id="path1286"
         inkscape:connector-curvature="0"
         style="fill:#999999;stroke:#000000;stroke-width:0.75px;stroke-miterlimit:10" />
      <path
         class="cls-2"
         d="m 76.58,128.26 a 7.9,7.9 0 0 1 2.53,-0.41 c 1.56,0 0,2.6 6.5,5.76 6.5,3.16 4.35,4.3 2,2.67 -2.35,-1.63 -7.72,-3.83 -11.03,-8.02 z"
         transform="translate(-38.05,-95.92)"
         id="path1288"
         inkscape:connector-curvature="0"
         style="fill:#999999;stroke:#000000;stroke-width:0.75px;stroke-miterlimit:10" />
      <path
         class="cls-2"
         d="m 106.35,126.3 0.2,0.59 1.4,0.35 c 0,0 -6.8,6.69 -9.51,8.12 -2.71,1.43 -3.34,1.25 -1.77,-0.2 1.57,-1.45 8.43,-6.89 9.68,-8.86 z"
         transform="translate(-38.05,-95.92)"
         id="path1290"
         inkscape:connector-curvature="0"
         style="fill:#999999;stroke:#000000;stroke-width:0.75px;stroke-miterlimit:10" />
      <path
         class="cls-2"
         d="m 119.37,130.39 1.92,0.73 c 0,0 -7.07,3.45 -11.18,7.55 -4.11,4.1 -6.19,3.07 -3,0.54 3.19,-2.53 9,-7.29 12.26,-8.82 z"
         transform="translate(-38.05,-95.92)"
         id="path1292"
         inkscape:connector-curvature="0"
         style="fill:#999999;stroke:#000000;stroke-width:0.75px;stroke-miterlimit:10" />
      <path
         class="cls-2"
         d="m 124.68,132.68 1.25,0.7 a 55.32,55.32 0 0 1 -4.07,6 c -2.71,3.52 -0.36,-1.63 -0.36,-1.63 z"
         transform="translate(-38.05,-95.92)"
         id="path1294"
         inkscape:connector-curvature="0"
         style="fill:#999999;stroke:#000000;stroke-width:0.75px;stroke-miterlimit:10" />
      <path
         class="cls-2"
         d="m 130.19,141.86 2.17,-1.44 c 0,0 2.87,-0.95 0.9,0.72 -1.97,1.67 -4.37,3.56 -4.37,3.56 0,0 -2.57,2.09 -1.41,0.33 a 19.61,19.61 0 0 1 2.71,-3.17 z"
         transform="translate(-38.05,-95.92)"
         id="path1296"
         inkscape:connector-curvature="0"
         style="fill:#999999;stroke:#000000;stroke-width:0.75px;stroke-miterlimit:10" />
      <path
         class="cls-2"
         d="m 127.61,150.36 1.51,1.17 a 9.82,9.82 0 0 0 3.91,-3.72 c 1.7,-2.74 -1.28,-0.3 -1.28,-0.3 a 8.87,8.87 0 0 1 -4.14,2.85 z"
         transform="translate(-38.05,-95.92)"
         id="path1298"
         inkscape:connector-curvature="0"
         style="fill:#999999;stroke:#000000;stroke-width:0.75px;stroke-miterlimit:10" />
      <path
         class="cls-2"
         d="M 132.74,148.91"
         transform="translate(-38.05,-95.92)"
         id="path1300"
         inkscape:connector-curvature="0"
         style="fill:#999999;stroke:#000000;stroke-width:0.75px;stroke-miterlimit:10" />
      <path
         class="cls-2"
         d="m 141.94,144.86 0.51,0.47 a 28.58,28.58 0 0 1 -4.25,4.53 c -2.93,2.6 0,-1 0,-1 z"
         transform="translate(-38.05,-95.92)"
         id="path1302"
         inkscape:connector-curvature="0"
         style="fill:#999999;stroke:#000000;stroke-width:0.75px;stroke-miterlimit:10" />
      <path
         class="cls-2"
         d="m 136.9,156 1.44,0.59 a 7,7 0 0 0 2.34,-3.85 c 0.3,-2.2 -1.08,0.08 -1.08,0.08 0,0 -1.04,2.53 -2.7,3.18 z"
         transform="translate(-38.05,-95.92)"
         id="path1304"
         inkscape:connector-curvature="0"
         style="fill:#999999;stroke:#000000;stroke-width:0.75px;stroke-miterlimit:10" />
      <path
         class="cls-2"
         d="m 124.9,155.06 -0.09,2.24 c 0,0 -4.66,4.43 -6.92,5.34 -2.26,0.91 -5.89,2.73 -0.91,-0.75 4.98,-3.48 7.2,-4.99 7.92,-6.83 z"
         transform="translate(-38.05,-95.92)"
         id="path1306"
         inkscape:connector-curvature="0"
         style="fill:#999999;stroke:#000000;stroke-width:0.75px;stroke-miterlimit:10" />
      <path
         class="cls-2"
         d="m 124.06,162.78 -0.9,3.65 A 52.08,52.08 0 0 1 112.52,177 c -7.21,5.52 0.83,-3.26 0.83,-3.26 z"
         transform="translate(-38.05,-95.92)"
         id="path1308"
         inkscape:connector-curvature="0"
         style="fill:#999999;stroke:#000000;stroke-width:0.75px;stroke-miterlimit:10" />
      <path
         class="cls-2"
         d="m 123.91,186.93 -0.86,1.81 c 0,0 -7.63,0.67 -12.7,-2.67 -5.07,-3.34 0.57,-1.22 1.71,-0.62 a 23.24,23.24 0 0 0 11.85,1.48 z"
         transform="translate(-38.05,-95.92)"
         id="path1310"
         inkscape:connector-curvature="0"
         style="fill:#999999;stroke:#000000;stroke-width:0.75px;stroke-miterlimit:10" />
      <path
         class="cls-2"
         d="m 122.76,192.35 1,2 c 0,0 -4.69,4.48 -13.65,3.07 -8.96,-1.41 1.65,-1 1.65,-1 0,0 9.1,0.15 11,-4.07 z"
         transform="translate(-38.05,-95.92)"
         id="path1312"
         inkscape:connector-curvature="0"
         style="fill:#999999;stroke:#000000;stroke-width:0.75px;stroke-miterlimit:10" />
      <path
         class="cls-2"
         d="m 98.61,200 3.34,3 c 0,0 8.13,2.63 11.11,2.17 2.98,-0.46 -2,-1.21 -2,-1.21 A 35.94,35.94 0 0 1 98.61,200 Z"
         transform="translate(-38.05,-95.92)"
         id="path1314"
         inkscape:connector-curvature="0"
         style="fill:#999999;stroke:#000000;stroke-width:0.75px;stroke-miterlimit:10" />
      <path
         class="cls-2"
         d="m 104.89,207.55 0.33,1.53 a 16.19,16.19 0 0 0 7.8,0.88 c 4.14,-0.63 0.4,-1.06 -1,-1 -1.4,0.06 -7.13,-1.41 -7.13,-1.41 z"
         transform="translate(-38.05,-95.92)"
         id="path1316"
         inkscape:connector-curvature="0"
         style="fill:#999999;stroke:#000000;stroke-width:0.75px;stroke-miterlimit:10" />
      <path
         class="cls-2"
         d="m 125.63,208.48 -0.07,1.64 c 0,0 -1.62,1.38 -7.26,1.81 -5.64,0.43 0.94,-1.23 0.94,-1.23 0,0 5.85,-1.06 6.39,-2.22 z"
         transform="translate(-38.05,-95.92)"
         id="path1318"
         inkscape:connector-curvature="0"
         style="fill:#999999;stroke:#000000;stroke-width:0.75px;stroke-miterlimit:10" />
      <path
         class="cls-2"
         d="m 108,216.73 1.07,1.83 a 24.25,24.25 0 0 0 7.64,-2.36 c 3.94,-2 -1.17,-0.4 -1.17,-0.4 a 11.21,11.21 0 0 1 -3.8,0 c -2.29,-0.29 -2.21,0.11 -3.74,0.93 z"
         transform="translate(-38.05,-95.92)"
         id="path1320"
         inkscape:connector-curvature="0"
         style="fill:#999999;stroke:#000000;stroke-width:0.75px;stroke-miterlimit:10" />
      <path
         class="cls-2"
         d="m 89,114.67 a 1.16,1.16 0 0 1 0.14,0.72 c -0.07,0.41 -0.22,0.73 -0.7,0.56 a 1.19,1.19 0 0 0 -1.2,0.39 c -0.31,0.29 -0.4,0.52 -0.88,0.06 -0.48,-0.46 0.31,-1.28 1,-1.55 a 6,6 0 0 0 1,-0.43 0.46,0.46 0 0 1 0.64,0.25 z"
         transform="translate(-38.05,-95.92)"
         id="path1322"
         inkscape:connector-curvature="0"
         style="fill:#999999;stroke:#000000;stroke-width:0.75px;stroke-miterlimit:10" />
      <path
         class="cls-2"
         d="m 94.31,115.21 c 0,0 0,-1.06 0.91,-0.83 a 5.26,5.26 0 0 1 2,0.88 c 0.34,0.27 1,1.29 -0.37,0.91 -1.37,-0.38 -1.6,0 -1.6,0 0,0 -0.57,0.58 -0.71,0 a 9,9 0 0 1 -0.23,-0.96 z"
         transform="translate(-38.05,-95.92)"
         id="path1324"
         inkscape:connector-curvature="0"
         style="fill:#999999;stroke:#000000;stroke-width:0.75px;stroke-miterlimit:10" />
      <path
         class="cls-2"
         d="m 91.37,116.66 a 2.36,2.36 0 0 1 1.64,0.67 c 0.59,0.67 0.61,1.13 0,1.28 -0.61,0.15 -0.92,0 -1.06,0.85 -0.14,0.85 -0.58,0.55 -0.74,0.21 a 1.21,1.21 0 0 0 -0.78,-0.76 1.07,1.07 0 0 1 -0.63,-0.67 c 0,0 -0.43,-1.18 1.57,-1.58 z"
         transform="translate(-38.05,-95.92)"
         id="path1326"
         inkscape:connector-curvature="0"
         style="fill:#999999;stroke:#000000;stroke-width:0.75px;stroke-miterlimit:10" />
      <path
         class="cls-2"
         d="m 89.05,122 c 0,0 1.93,1.32 4.89,-0.63 2.96,-1.95 0.24,3.8 -2.33,3.8 -2.57,0 -3.39,-3 -3.39,-3 0,0 -0.13,-0.99 0.83,-0.17 z"
         transform="translate(-38.05,-95.92)"
         id="path1328"
         inkscape:connector-curvature="0"
         style="fill:#999999;stroke:#000000;stroke-width:0.75px;stroke-miterlimit:10" />
      <path
         class="cls-2"
         d="m 95.23,121.31 a 5.32,5.32 0 0 1 -3.74,2.17 5.73,5.73 0 0 1 -2.86,-0.35"
         transform="translate(-38.05,-95.92)"
         id="path1330"
         inkscape:connector-curvature="0"
         style="fill:#999999;stroke:#000000;stroke-width:0.75px;stroke-miterlimit:10" />
    </g>
  </g>
  <g
     inkscape:groupmode="layer"
     id="layer2"
     inkscape:label="Lines"
     style="display:inline">
    <g
       id="Lines">
      <path
         class="cls-1"
         d="m 83.35,105.72 a 3.86,3.86 0 0 0 1,-2.27 c 0.27,-1.66 0.41,-3.45 0.41,-3.45 0,0 0.68,-3 3,-3.22 2.32,-0.22 4.31,-0.84 7.81,-0.22 3.5,0.62 3.07,5.44 3.07,5.44 0,0 -0.25,2.44 0.49,3.53"
         transform="translate(-38.05,-95.92)"
         id="path1083"
         inkscape:connector-curvature="0"
         style="fill:none;stroke:#000000;stroke-width:0.75px;stroke-miterlimit:10" />
      <path
         class="cls-1"
         d="m 84.13,104.36 a 25,25 0 0 0 7,0.87 c 0,0 6.58,-0.54 7.72,-1.35"
         transform="translate(-38.05,-95.92)"
         id="path1085"
         inkscape:connector-curvature="0"
         style="fill:none;stroke:#000000;stroke-width:0.75px;stroke-miterlimit:10" />
      <path
         class="cls-1"
         d="m 83.65,105.35 c 0,0 5.69,4 15.29,-0.21"
         transform="translate(-38.05,-95.92)"
         id="path1087"
         inkscape:connector-curvature="0"
         style="fill:none;stroke:#000000;stroke-width:0.75px;stroke-miterlimit:10" />
      <path
         class="cls-1"
         d="m 84.43,102.93 c 0,0 -4.36,0 -4.69,1.9 a 2,2 0 0 0 0.7,1.71"
         transform="translate(-38.05,-95.92)"
         id="path1089"
         inkscape:connector-curvature="0"
         style="fill:none;stroke:#000000;stroke-width:0.75px;stroke-miterlimit:10" />
      <path
         class="cls-1"
         d="m 98.6,102.93 a 4,4 0 0 1 2.75,-0.13 c 1.6,0.4 0.76,2.71 0.76,2.71 a 5.27,5.27 0 0 1 -0.35,0.76 8.56,8.56 0 0 1 -6.76,4.31 c -5.78,0.75 -12,-1.55 -12,-1.55 0,0 -1.9,-3 -3.53,-2.58 -1.63,0.42 -3.74,3.45 -1,8.63 0,0 -2.79,5.66 0.79,8.4 0.79,0.6 1.52,1.19 2.19,1.76 a 24.41,24.41 0 0 1 5.18,5.69 c 1.36,2.25 3.8,0.41 3.8,0.41 0,0 0.87,1.19 3.31,0.84 2.44,-0.35 5.28,-1 7.32,-3.82 a 49.74,49.74 0 0 1 4.41,-5.75 c 3.12,-3.66 1.28,-7 1.28,-7 l -1.3,-3 0.54,-2.9 c 0,0 0.54,-2.4 -0.41,-3.11 -0.95,-0.71 -1.33,-1.26 -4,-0.1"
         transform="translate(-38.05,-95.92)"
         id="path1091"
         inkscape:connector-curvature="0"
         style="fill:none;stroke:#000000;stroke-width:0.75px;stroke-miterlimit:10" />
      <path
         class="cls-1"
         d="m 79.55,112.07 a 18.93,18.93 0 0 0 1.28,-1.74 1.63,1.63 0 0 0 -1.85,-1 c -1.46,0.19 0.02,2.52 0.57,2.74 z"
         transform="translate(-38.05,-95.92)"
         id="path1093"
         inkscape:connector-curvature="0"
         style="fill:none;stroke:#000000;stroke-width:0.75px;stroke-miterlimit:10" />
      <path
         class="cls-1"
         d="m 102,108.54 1.65,1.38 c 0,0 1.11,-1.43 0.14,-2.11 -0.97,-0.68 -1.25,0.11 -1.79,0.73 z"
         transform="translate(-38.05,-95.92)"
         id="path1095"
         inkscape:connector-curvature="0"
         style="fill:none;stroke:#000000;stroke-width:0.75px;stroke-miterlimit:10" />
      <path
         class="cls-1"
         d="M 82.45,114.23"
         transform="translate(-38.05,-95.92)"
         id="path1097"
         inkscape:connector-curvature="0"
         style="fill:none;stroke:#000000;stroke-width:0.75px;stroke-miterlimit:10" />
      <path
         class="cls-1"
         d="m 85.46,114 a 3.27,3.27 0 0 1 2.85,-1.3"
         transform="translate(-38.05,-95.92)"
         id="path1099"
         inkscape:connector-curvature="0"
         style="fill:none;stroke:#000000;stroke-width:0.75px;stroke-miterlimit:10" />
      <path
         class="cls-1"
         d="m 94.14,112.69 a 3.27,3.27 0 0 1 3.66,0.65"
         transform="translate(-38.05,-95.92)"
         id="path1101"
         inkscape:connector-curvature="0"
         style="fill:none;stroke:#000000;stroke-width:0.75px;stroke-miterlimit:10" />
      <path
         class="cls-1"
         d="M 88.09,114.53"
         transform="translate(-38.05,-95.92)"
         id="path1103"
         inkscape:connector-curvature="0"
         style="fill:none;stroke:#000000;stroke-width:0.75px;stroke-miterlimit:10" />
      <polyline
         class="cls-1"
         points="53.58 24.02 53.58 25.83 53.58 26.35"
         id="polyline1105"
         style="fill:none;stroke:#000000;stroke-width:0.75px;stroke-miterlimit:10" />
      <path
         class="cls-1"
         d="M 103.52,117.49"
         transform="translate(-38.05,-95.92)"
         id="path1107"
         inkscape:connector-curvature="0"
         style="fill:none;stroke:#000000;stroke-width:0.75px;stroke-miterlimit:10" />
      <path
         class="cls-1"
         d="m 81.59,125.32 c 0.12,0.69 -1,2.43 -1,2.43 a 29.58,29.58 0 0 0 -13.26,4 c -7.3,4.05 -12.78,5.42 -25.14,21.68 a 2.81,2.81 0 0 0 -3.25,0.85 1.63,1.63 0 0 0 0.54,2.66 c 0,0.05 -1.76,2 -0.63,3.61 1.13,1.61 2.75,-0.55 2.75,-0.55 0,0 -0.94,2.08 0.42,2.84 1.36,0.76 2.35,-1.45 2.35,-1.45 0,0 1.08,1.41 2.08,1.36 1,-0.05 1.6,-0.8 2,-1.85 a 3.44,3.44 0 0 0 -0.43,-2.49 39.43,39.43 0 0 0 5.42,-3"
         transform="translate(-38.05,-95.92)"
         id="path1109"
         inkscape:connector-curvature="0"
         style="fill:none;stroke:#000000;stroke-width:0.75px;stroke-miterlimit:10" />
      <path
         class="cls-1"
         d="M 52.48,156.33 A 10.78,10.78 0 0 0 58.79,152.56 12.66,12.66 0 0 0 60,150.8"
         transform="translate(-38.05,-95.92)"
         id="path1111"
         inkscape:connector-curvature="0"
         style="fill:none;stroke:#000000;stroke-width:0.75px;stroke-miterlimit:10" />
      <path
         class="cls-1"
         d="m 67.16,144.33 c 0,0 -3.27,6 -6.77,7.76 a 4.24,4.24 0 0 1 -1.6,0.47"
         transform="translate(-38.05,-95.92)"
         id="path1113"
         inkscape:connector-curvature="0"
         style="fill:none;stroke:#000000;stroke-width:0.75px;stroke-miterlimit:10" />
      <path
         class="cls-1"
         d="m 56,218.1 a 77.72,77.72 0 0 1 -1.51,-13.56 36.53,36.53 0 0 1 1.62,-10.3 c 0,0 2.1,-7.19 1.34,-9.65 A 11.32,11.32 0 0 1 57,180 131.36,131.36 0 0 1 60.18,166.45 c 0,0 -2.18,-7.45 0.21,-14.36"
         transform="translate(-38.05,-95.92)"
         id="path1115"
         inkscape:connector-curvature="0"
         style="fill:none;stroke:#000000;stroke-width:0.75px;stroke-miterlimit:10" />
      <path
         class="cls-1"
         d="M 56.22,218.17"
         transform="translate(-38.05,-95.92)"
         id="path1117"
         inkscape:connector-curvature="0"
         style="fill:none;stroke:#000000;stroke-width:0.75px;stroke-miterlimit:10" />
      <path
         class="cls-1"
         d="M 62,225.08"
         transform="translate(-38.05,-95.92)"
         id="path1119"
         inkscape:connector-curvature="0"
         style="fill:none;stroke:#000000;stroke-width:0.75px;stroke-miterlimit:10" />
      <path
         class="cls-1"
         d="m 123.14,222 c 0,0 1.27,-2.14 2.17,-8.93 0,0 2,-16.36 -3.53,-22 a 41.85,41.85 0 0 0 4,-9.56"
         transform="translate(-38.05,-95.92)"
         id="path1121"
         inkscape:connector-curvature="0"
         style="fill:none;stroke:#000000;stroke-width:0.75px;stroke-miterlimit:10" />
      <path
         class="cls-1"
         d="m 66.1,219.54 c 2.25,-1.67 7,-8 7,-8 l 3,-4 c 0,0 1.67,-2.6 6.26,-5.49 a 56.57,56.57 0 0 0 6.25,-4.34 6.38,6.38 0 0 1 7,0 48.73,48.73 0 0 1 7,5.93 8.26,8.26 0 0 1 2.53,4.88 c 0.58,3.32 3.25,11.42 7.84,13.95"
         transform="translate(-38.05,-95.92)"
         id="path1123"
         inkscape:connector-curvature="0"
         style="fill:none;stroke:#000000;stroke-width:0.75px;stroke-miterlimit:10" />
      <path
         class="cls-1"
         d="m 105.21,123 1.37,4 c 0,0 20.25,3.57 23.61,10.46 0,0 10.27,4.32 15.6,11.57 0,0 3.4,0.36 2.9,1.9 a 1.62,1.62 0 0 1 -1.94,1.07 l -0.32,-0.06"
         transform="translate(-38.05,-95.92)"
         id="path1125"
         inkscape:connector-curvature="0"
         style="fill:none;stroke:#000000;stroke-width:0.75px;stroke-miterlimit:10" />
      <path
         class="cls-1"
         d="m 146.75,152 -11.08,12.68 c 0,0 -0.4,4.33 4.46,2.11 l 6.1,-6"
         transform="translate(-38.05,-95.92)"
         id="path1127"
         inkscape:connector-curvature="0"
         style="fill:none;stroke:#000000;stroke-width:0.75px;stroke-miterlimit:10" />
      <path
         class="cls-1"
         d="M 139.65,166.88"
         transform="translate(-38.05,-95.92)"
         id="path1129"
         inkscape:connector-curvature="0"
         style="fill:none;stroke:#000000;stroke-width:0.75px;stroke-miterlimit:10" />
      <path
         class="cls-1"
         d="m 149.49,156.17 c 0,0 0,-1.95 1.58,-1.9 1.58,0.05 1.73,0.28 2.08,1.36 a 1.38,1.38 0 0 1 -0.67,1.63 1.43,1.43 0 0 1 -0.36,1.49 2.4,2.4 0 0 1 -1.49,0.62 c 0,0 0.14,1.14 -0.46,1.55 -0.6,0.41 -2.9,0.67 -3.79,0 -0.89,-0.67 -0.22,-2.09 -0.22,-2.09 0,0 0.22,-0.8 1.44,-0.51 0,0 -0.49,-1.31 0.4,-1.8 a 2.37,2.37 0 0 1 1.49,-0.35 z"
         transform="translate(-38.05,-95.92)"
         id="path1131"
         inkscape:connector-curvature="0"
         style="fill:none;stroke:#000000;stroke-width:0.75px;stroke-miterlimit:10" />
      <path
         class="cls-1"
         d="m 148.33,149.86 2.72,-2.86 -0.07,-1 7.07,-6.72 2.15,-2 a 0.63,0.63 0 0 1 1.05,0.13 c 0.47,0.75 3.75,4 3.75,4 0,0 0.33,0.31 -0.49,0.94 -0.82,0.63 -7.61,7.9 -7.61,7.9 l -1.25,0.31 -3.52,3.86"
         transform="translate(-38.05,-95.92)"
         id="path1133"
         inkscape:connector-curvature="0"
         style="fill:none;stroke:#000000;stroke-width:0.75px;stroke-miterlimit:10" />
      <path
         class="cls-1"
         d="m 158.05,139.24 c -1.66,-1.08 -0.34,-1.56 -0.34,-1.56 0,0 0.67,-0.41 1.52,0.44"
         transform="translate(-38.05,-95.92)"
         id="path1135"
         inkscape:connector-curvature="0"
         style="fill:none;stroke:#000000;stroke-width:0.75px;stroke-miterlimit:10" />
      <path
         class="cls-1"
         d="m 155.67,141.5 c -1.25,-0.72 -0.54,-1.55 -0.54,-1.55 0,0 0.6,-0.92 1.57,0.58"
         transform="translate(-38.05,-95.92)"
         id="path1137"
         inkscape:connector-curvature="0"
         style="fill:none;stroke:#000000;stroke-width:0.75px;stroke-miterlimit:10" />
      <path
         class="cls-1"
         d="m 153.68,143.39 c -1.35,-0.49 -0.85,-1.46 -0.85,-1.46 0,0 0.68,-1.34 1.8,0.56"
         transform="translate(-38.05,-95.92)"
         id="path1139"
         inkscape:connector-curvature="0"
         style="fill:none;stroke:#000000;stroke-width:0.75px;stroke-miterlimit:10" />
      <path
         class="cls-1"
         d="m 151.81,145.17 c -1.36,-0.27 -0.68,-1.26 -0.68,-1.26 0,0 0.48,-1 1.65,0.34"
         transform="translate(-38.05,-95.92)"
         id="path1141"
         inkscape:connector-curvature="0"
         style="fill:none;stroke:#000000;stroke-width:0.75px;stroke-miterlimit:10" />
      <path
         class="cls-1"
         d="m 164.87,142 c 1.2,1.13 0.6,1.64 0.6,1.64 0,0 -0.61,0.61 -1.61,-0.7"
         transform="translate(-38.05,-95.92)"
         id="path1143"
         inkscape:connector-curvature="0"
         style="fill:none;stroke:#000000;stroke-width:0.75px;stroke-miterlimit:10" />
      <path
         class="cls-1"
         d="m 162.63,144.18 c 1,1 0.64,1.39 0.64,1.39 0,0 -0.24,0.83 -1.73,-0.26"
         transform="translate(-38.05,-95.92)"
         id="path1145"
         inkscape:connector-curvature="0"
         style="fill:none;stroke:#000000;stroke-width:0.75px;stroke-miterlimit:10" />
      <path
         class="cls-1"
         d="m 160.6,146.3 c 0,0 1.48,0.63 0.77,1.7 -0.71,1.07 -1.75,-0.67 -1.75,-0.67"
         transform="translate(-38.05,-95.92)"
         id="path1147"
         inkscape:connector-curvature="0"
         style="fill:none;stroke:#000000;stroke-width:0.75px;stroke-miterlimit:10" />
      <path
         class="cls-1"
         d="m 158.58,148.43 c 0,0 1.34,0.65 0.82,1.77 -0.52,1.12 -1.75,-0.78 -1.75,-0.78"
         transform="translate(-38.05,-95.92)"
         id="path1149"
         inkscape:connector-curvature="0"
         style="fill:none;stroke:#000000;stroke-width:0.75px;stroke-miterlimit:10" />
      <ellipse
         class="cls-1"
         cx="121.39"
         cy="44.080002"
         rx="0.61000001"
         ry="0.68000001"
         id="ellipse1151"
         style="fill:none;stroke:#000000;stroke-width:0.75px;stroke-miterlimit:10" />
      <ellipse
         class="cls-1"
         cx="119.56"
         cy="45.93"
         rx="0.61000001"
         ry="0.68000001"
         id="ellipse1153"
         style="fill:none;stroke:#000000;stroke-width:0.75px;stroke-miterlimit:10" />
      <ellipse
         class="cls-1"
         cx="124.1"
         cy="45.59"
         rx="0.61000001"
         ry="0.68000001"
         id="ellipse1155"
         style="fill:none;stroke:#000000;stroke-width:0.75px;stroke-miterlimit:10" />
      <ellipse
         class="cls-1"
         cx="121.85"
         cy="48.330002"
         rx="0.61000001"
         ry="0.68000001"
         id="ellipse1157"
         style="fill:none;stroke:#000000;stroke-width:0.75px;stroke-miterlimit:10" />
      <ellipse
         class="cls-1"
         cx="117.48"
         cy="47.849998"
         rx="0.61000001"
         ry="0.68000001"
         id="ellipse1159"
         style="fill:none;stroke:#000000;stroke-width:0.75px;stroke-miterlimit:10" />
      <ellipse
         class="cls-1"
         cx="119.74"
         cy="50.02"
         rx="0.61000001"
         ry="0.68000001"
         id="ellipse1161"
         style="fill:none;stroke:#000000;stroke-width:0.75px;stroke-miterlimit:10" />
      <ellipse
         class="cls-1"
         cx="117.97"
         cy="52.16"
         rx="0.61000001"
         ry="0.68000001"
         id="ellipse1163"
         style="fill:none;stroke:#000000;stroke-width:0.75px;stroke-miterlimit:10" />
      <ellipse
         class="cls-1"
         cx="115.37"
         cy="49.790001"
         rx="0.61000001"
         ry="0.68000001"
         id="ellipse1165"
         style="fill:none;stroke:#000000;stroke-width:0.75px;stroke-miterlimit:10" />
      <path
         class="cls-1"
         d="m 150.74,147.32 a 10.33,10.33 0 0 1 3.73,4.5"
         transform="translate(-38.05,-95.92)"
         id="path1167"
         inkscape:connector-curvature="0"
         style="fill:none;stroke:#000000;stroke-width:0.75px;stroke-miterlimit:10" />
      <path
         class="cls-1"
         d="m 149.67,148.35 a 19.44,19.44 0 0 1 4,4.37"
         transform="translate(-38.05,-95.92)"
         id="path1169"
         inkscape:connector-curvature="0"
         style="fill:none;stroke:#000000;stroke-width:0.75px;stroke-miterlimit:10" />
      <path
         class="cls-1"
         d="m 148.74,150.53 c 0,0 -0.17,-0.74 3.65,3.58"
         transform="translate(-38.05,-95.92)"
         id="path1171"
         inkscape:connector-curvature="0"
         style="fill:none;stroke:#000000;stroke-width:0.75px;stroke-miterlimit:10" />
      <path
         class="cls-1"
         d="m 146.64,152.11 a 7.67,7.67 0 0 1 3.19,2.83"
         transform="translate(-38.05,-95.92)"
         id="path1173"
         inkscape:connector-curvature="0"
         style="fill:none;stroke:#000000;stroke-width:0.75px;stroke-miterlimit:10" />
      <path
         class="cls-1"
         d="m 145.3,153.52 c 0,0 2.6,1.59 3.09,2.82"
         transform="translate(-38.05,-95.92)"
         id="path1175"
         inkscape:connector-curvature="0"
         style="fill:none;stroke:#000000;stroke-width:0.75px;stroke-miterlimit:10" />
      <path
         class="cls-1"
         d="m 143.69,155.48 a 8.13,8.13 0 0 1 3.91,2.84"
         transform="translate(-38.05,-95.92)"
         id="path1177"
         inkscape:connector-curvature="0"
         style="fill:none;stroke:#000000;stroke-width:0.75px;stroke-miterlimit:10" />
      <path
         class="cls-1"
         d="m 142.31,157.06 a 11,11 0 0 1 3.64,2.47"
         transform="translate(-38.05,-95.92)"
         id="path1179"
         inkscape:connector-curvature="0"
         style="fill:none;stroke:#000000;stroke-width:0.75px;stroke-miterlimit:10" />
      <path
         class="cls-1"
         d="m 141.2,158.19 a 10.4,10.4 0 0 1 4.54,3.07"
         transform="translate(-38.05,-95.92)"
         id="path1181"
         inkscape:connector-curvature="0"
         style="fill:none;stroke:#000000;stroke-width:0.75px;stroke-miterlimit:10" />
      <path
         class="cls-1"
         d="M 140.44,159.19 A 15,15 0 0 1 145,162"
         transform="translate(-38.05,-95.92)"
         id="path1183"
         inkscape:connector-curvature="0"
         style="fill:none;stroke:#000000;stroke-width:0.75px;stroke-miterlimit:10" />
      <path
         class="cls-1"
         d="m 139.74,160 c 0,0 3.22,1.49 4.17,3.06"
         transform="translate(-38.05,-95.92)"
         id="path1185"
         inkscape:connector-curvature="0"
         style="fill:none;stroke:#000000;stroke-width:0.75px;stroke-miterlimit:10" />
      <path
         class="cls-1"
         d="m 138.91,161 a 13.57,13.57 0 0 1 4.15,2.94"
         transform="translate(-38.05,-95.92)"
         id="path1187"
         inkscape:connector-curvature="0"
         style="fill:none;stroke:#000000;stroke-width:0.75px;stroke-miterlimit:10" />
      <path
         class="cls-1"
         d="m 138,162 c 0,0 3,1.31 4,3"
         transform="translate(-38.05,-95.92)"
         id="path1189"
         inkscape:connector-curvature="0"
         style="fill:none;stroke:#000000;stroke-width:0.75px;stroke-miterlimit:10" />
      <path
         class="cls-1"
         d="m 140.88,166 c -1,-1.53 -4,-2.8 -4,-2.8"
         transform="translate(-38.05,-95.92)"
         id="path1191"
         inkscape:connector-curvature="0"
         style="fill:none;stroke:#000000;stroke-width:0.75px;stroke-miterlimit:10" />
      <path
         class="cls-1"
         d="m 135.85,164.45 a 22.11,22.11 0 0 1 3.8,2.43"
         transform="translate(-38.05,-95.92)"
         id="path1193"
         inkscape:connector-curvature="0"
         style="fill:none;stroke:#000000;stroke-width:0.75px;stroke-miterlimit:10" />
      <path
         class="cls-1"
         d="M 151.41,147.82"
         transform="translate(-38.05,-95.92)"
         id="path1195"
         inkscape:connector-curvature="0"
         style="fill:none;stroke:#000000;stroke-width:0.75px;stroke-miterlimit:10" />
      <path
         class="cls-1"
         d="m 126.18,173.73 3.92,3.16 c 0,0 -2.11,3.33 -4.7,1.5 -2.59,-1.83 0.78,-4.66 0.78,-4.66 z"
         transform="translate(-38.05,-95.92)"
         id="path1197"
         inkscape:connector-curvature="0"
         style="fill:none;stroke:#000000;stroke-width:0.75px;stroke-miterlimit:10" />
      <path
         class="cls-1"
         d="m 130.93,170.1 2.93,2.62 a 0.53,0.53 0 0 0 0.54,-0.13 l 1.09,-1.17 c 0,0 0.32,-0.28 -0.13,-0.73 -0.45,-0.45 -2.82,-2.67 -2.82,-2.67 a 0.44,0.44 0 0 0 -0.58,0.09 c -0.21,0.31 -1,1.3 -1,1.3 a 0.46,0.46 0 0 0 -0.03,0.69 z"
         transform="translate(-38.05,-95.92)"
         id="path1199"
         inkscape:connector-curvature="0"
         style="fill:none;stroke:#000000;stroke-width:0.75px;stroke-miterlimit:10" />
      <circle
         class="cls-1"
         cx="93.75"
         cy="82.989998"
         r="1.04"
         id="circle1201"
         style="fill:none;stroke:#000000;stroke-width:0.75px;stroke-miterlimit:10" />
      <circle
         class="cls-1"
         cx="91.199997"
         cy="84.019997"
         r="1.04"
         id="circle1203"
         style="fill:none;stroke:#000000;stroke-width:0.75px;stroke-miterlimit:10" />
      <path
         class="cls-1"
         d="m 137,163.11 c 0,0 -1.8,0.49 -1.89,-1 -0.09,-1.3 0.11,-1.93 0.06,-3.12 0,-0.72 -0.06,-1.45 -0.44,-1.62 -0.53,-0.23 -1.45,0.71 -1.9,1.29 -0.77,1 -0.67,1.54 -1.65,3.7 a 6.75,6.75 0 0 1 -0.86,1.59 c -1,1.15 -2.43,1.11 -3.62,1.39 -2.93,0.68 -5.27,3.45 -6.14,5.95 a 8,8 0 0 0 0,5.5 8.21,8.21 0 0 0 4.31,4.43 c 0,0 8.12,3.74 10.68,-1.95 2.56,-5.69 5.45,-6.17 5.45,-6.17 0,0 4.33,-0.76 5.85,-3.69 1.52,-2.93 -0.35,-2.53 -0.35,-2.53 l -3.43,0.79 c 0,0 -3.57,0.88 -2.36,-1.45"
         transform="translate(-38.05,-95.92)"
         id="path1205"
         inkscape:connector-curvature="0"
         style="fill:none;stroke:#000000;stroke-width:0.75px;stroke-miterlimit:10" />
      <path
         class="cls-1"
         d="M 123.48,167"
         transform="translate(-38.05,-95.92)"
         id="path1207"
         inkscape:connector-curvature="0"
         style="fill:none;stroke:#000000;stroke-width:0.75px;stroke-miterlimit:10" />
      <path
         class="cls-1"
         d="m 117.61,145.67 a 11.07,11.07 0 0 0 7.78,2.68 38.07,38.07 0 0 0 14.91,9 c 0,0 0,0.58 0.76,1.19"
         transform="translate(-38.05,-95.92)"
         id="path1209"
         inkscape:connector-curvature="0"
         style="fill:none;stroke:#000000;stroke-width:0.75px;stroke-miterlimit:10" />
      <path
         class="cls-1"
         d="m 122.71,167.78 a 39.78,39.78 0 0 0 1.6,-19.43"
         transform="translate(-38.05,-95.92)"
         id="path1211"
         inkscape:connector-curvature="0"
         style="fill:none;stroke:#000000;stroke-width:0.75px;stroke-miterlimit:10" />
      <path
         class="cls-1"
         d="m 68.11,153.47 c 0,0 6.11,5.42 9.31,5.42 a 10.56,10.56 0 0 0 5.88,-2.17"
         transform="translate(-38.05,-95.92)"
         id="path1213"
         inkscape:connector-curvature="0"
         style="fill:none;stroke:#000000;stroke-width:0.75px;stroke-miterlimit:10" />
      <path
         class="cls-1"
         d="m 100.52,154.45 c 0,0 2.2,5.31 6.9,5 4.7,-0.31 10.19,-5.93 10.19,-5.93"
         transform="translate(-38.05,-95.92)"
         id="path1215"
         inkscape:connector-curvature="0"
         style="fill:none;stroke:#000000;stroke-width:0.75px;stroke-miterlimit:10" />
      <path
         class="cls-1"
         d="m 69,154.2 c 0,0 5.34,-13.6 21.57,-11.61 16.23,1.99 16.15,5.06 24.38,13.23"
         transform="translate(-38.05,-95.92)"
         id="path1217"
         inkscape:connector-curvature="0"
         style="fill:none;stroke:#000000;stroke-width:0.75px;stroke-miterlimit:10" />
      <path
         class="cls-1"
         d="m 70.31,155.26 c 0,0 -4.81,26.51 11.29,29.4 16.1,2.89 20.58,-0.43 20.58,-0.43 0,0 6.29,-1.7 8.46,-10.5 2.17,-8.8 2,-5.23 2.54,-16.67"
         transform="translate(-38.05,-95.92)"
         id="path1219"
         inkscape:connector-curvature="0"
         style="fill:none;stroke:#000000;stroke-width:0.75px;stroke-miterlimit:10" />
      <path
         class="cls-1"
         d="m 89.89,174.07 a 5,5 0 0 0 0.49,2.85 2.43,2.43 0 0 0 0.7,0.77 2,2 0 0 1 -0.54,2.67"
         transform="translate(-38.05,-95.92)"
         id="path1221"
         inkscape:connector-curvature="0"
         style="fill:none;stroke:#000000;stroke-width:0.75px;stroke-miterlimit:10" />
      <path
         class="cls-1"
         d="m 91.58,182.26 a 0.5,0.5 0 0 1 -0.68,-0.34 c -0.19,-0.54 0.08,-0.81 -0.43,-1.69 a 2.42,2.42 0 0 1 -0.41,-2.34 c 0.32,-1 0.36,-0.9 0.36,-0.9"
         transform="translate(-38.05,-95.92)"
         id="path1223"
         inkscape:connector-curvature="0"
         style="fill:none;stroke:#000000;stroke-width:0.75px;stroke-miterlimit:10" />
      <path
         class="cls-1"
         d="M 75.29,158.36"
         transform="translate(-38.05,-95.92)"
         id="path1225"
         inkscape:connector-curvature="0"
         style="fill:none;stroke:#000000;stroke-width:0.75px;stroke-miterlimit:10" />
      <path
         class="cls-1"
         d="M 154.23,205.12"
         transform="translate(-38.05,-95.92)"
         id="path1227"
         inkscape:connector-curvature="0"
         style="fill:none;stroke:#000000;stroke-width:0.75px;stroke-miterlimit:10" />
      <path
         class="cls-1"
         d="m 75.22,158.36 a 3.27,3.27 0 0 1 3.67,0.39"
         transform="translate(-38.05,-95.92)"
         id="path1229"
         inkscape:connector-curvature="0"
         style="fill:none;stroke:#000000;stroke-width:0.75px;stroke-miterlimit:10" />
      <path
         class="cls-1"
         d="m 104.85,159 c 0,0 1.67,-1.88 3.78,0.2"
         transform="translate(-38.05,-95.92)"
         id="path1231"
         inkscape:connector-curvature="0"
         style="fill:none;stroke:#000000;stroke-width:0.75px;stroke-miterlimit:10" />
      <path
         class="cls-1"
         d="m 40.46,155 a 1.45,1.45 0 0 1 -1,-0.19"
         transform="translate(-38.05,-95.92)"
         id="path1233"
         inkscape:connector-curvature="0"
         style="fill:none;stroke:#000000;stroke-width:0.75px;stroke-miterlimit:10" />
      <path
         class="cls-1"
         d="m 40.69,159.32 a 1.64,1.64 0 0 1 -1.11,0.77"
         transform="translate(-38.05,-95.92)"
         id="path1235"
         inkscape:connector-curvature="0"
         style="fill:none;stroke:#000000;stroke-width:0.75px;stroke-miterlimit:10" />
      <path
         class="cls-1"
         d="m 42.73,161.08 a 0.8,0.8 0 0 1 0.11,1.11"
         transform="translate(-38.05,-95.92)"
         id="path1237"
         inkscape:connector-curvature="0"
         style="fill:none;stroke:#000000;stroke-width:0.75px;stroke-miterlimit:10" />
      <path
         class="cls-1"
         d="m 46.43,161.15 a 0.87,0.87 0 0 1 0.34,0.9"
         transform="translate(-38.05,-95.92)"
         id="path1239"
         inkscape:connector-curvature="0"
         style="fill:none;stroke:#000000;stroke-width:0.75px;stroke-miterlimit:10" />
      <path
         class="cls-1"
         d="m 147.31,150.55 a 0.87,0.87 0 0 1 0.85,0.08"
         transform="translate(-38.05,-95.92)"
         id="path1241"
         inkscape:connector-curvature="0"
         style="fill:none;stroke:#000000;stroke-width:0.75px;stroke-miterlimit:10" />
      <path
         class="cls-1"
         d="m 151.54,155.57 c 0,0 -0.34,-0.08 -0.58,-0.63"
         transform="translate(-38.05,-95.92)"
         id="path1243"
         inkscape:connector-curvature="0"
         style="fill:none;stroke:#000000;stroke-width:0.75px;stroke-miterlimit:10" />
      <path
         class="cls-1"
         d="m 149.46,157.3 c 0,0 -0.64,0 -0.72,-0.5"
         transform="translate(-38.05,-95.92)"
         id="path1245"
         inkscape:connector-curvature="0"
         style="fill:none;stroke:#000000;stroke-width:0.75px;stroke-miterlimit:10" />
      <path
         class="cls-1"
         d="m 147.67,159.53 c 0,0 -0.7,0.18 -0.92,-0.34"
         transform="translate(-38.05,-95.92)"
         id="path1247"
         inkscape:connector-curvature="0"
         style="fill:none;stroke:#000000;stroke-width:0.75px;stroke-miterlimit:10" />
    </g>
  </g>
</svg>
